<?xml version="1.0" encoding="UTF-8" standalone="no"?>
<!-- Created with Inkscape (http://www.inkscape.org/) -->

<svg
   xmlns:dc="http://purl.org/dc/elements/1.1/"
   xmlns:cc="http://creativecommons.org/ns#"
   xmlns:rdf="http://www.w3.org/1999/02/22-rdf-syntax-ns#"
   xmlns:svg="http://www.w3.org/2000/svg"
   xmlns="http://www.w3.org/2000/svg"
   xmlns:sodipodi="http://sodipodi.sourceforge.net/DTD/sodipodi-0.dtd"
   xmlns:inkscape="http://www.inkscape.org/namespaces/inkscape"
   id="svg2"
   version="1.1"
   inkscape:version="0.47 r22583"
   width="322.72912"
   height="215.11262"
   xml:space="preserve"
   sodipodi:docname="LOGO_10.pdf"><metadata
     id="metadata8"><rdf:RDF><cc:Work
         rdf:about=""><dc:format>image/svg+xml</dc:format><dc:type
           rdf:resource="http://purl.org/dc/dcmitype/StillImage" /><dc:title></dc:title></cc:Work></rdf:RDF></metadata><defs
     id="defs6"><inkscape:perspective
       sodipodi:type="inkscape:persp3d"
       inkscape:vp_x="0 : 0.5 : 1"
       inkscape:vp_y="0 : 1000 : 0"
       inkscape:vp_z="1 : 0.5 : 1"
       inkscape:persp3d-origin="0.5 : 0.33333333 : 1"
       id="perspective10" /></defs><sodipodi:namedview
     pagecolor="#ffffff"
     bordercolor="#666666"
     borderopacity="1"
     objecttolerance="10"
     gridtolerance="10"
     guidetolerance="10"
     inkscape:pageopacity="0"
     inkscape:pageshadow="2"
     inkscape:window-width="1920"
     inkscape:window-height="1058"
     id="namedview4"
     showgrid="false"
     showguides="true"
     inkscape:guide-bbox="true"
     inkscape:zoom="1.1528844"
     inkscape:cx="161.36456"
     inkscape:cy="107.55631"
     inkscape:window-x="1076"
     inkscape:window-y="-3"
     inkscape:window-maximized="1"
     inkscape:current-layer="g12" /><g
     id="g12"
     inkscape:groupmode="layer"
     inkscape:label="LOGO_10"
     transform="matrix(1.25,0,0,-1.25,-228.00425,603.03262)"><path
       d="m 425.5452,438.0525 -1.9666,-12.7621 -24.0333,0 -14.5332,-92.1651 -15.2334,0 14.5332,92.1651 c -5.2019,0 -5.6424,2.7025 -10.8091,2.7062 -0.4218,0.4714 -3.4271,1.1611 -4.0028,1.3354 l 15.1317,-3.7224 1.1939,8.8738 c 2.0001,13.9995 6.829,27.6696 13.3532,33.9018 9.8512,9.4111 24.1676,10.2759 36.6998,8.697 l -2.0332,-12.833 c -8.6091,1.0375 -18.8947,1.0916 -25.1669,-6.3638 -3.8664,-4.5955 -6.2331,-11.2068 -7.0665,-19.8329 l 23.9332,0 z"
       style="fill:#006946;fill-opacity:1;fill-rule:nonzero;stroke:none"
       id="path14" /><path
       d="m 384.8417,333.0658 -15.2334,0 9.5667,59.0119 c 1.3932,8.5944 4.0801,21.9773 -3.3667,28.5418 -10.2238,9.0124 -22.4425,2.5503 -29.8667,-6.8514 -5.8998,-7.4707 -10.069,-19.1146 -12.6332,-34.9115 l -7.4333,-45.7908 -15.3334,0 9.4666,58.5986 c 1.4445,8.9425 4.6451,21.7607 -2.5334,29.0928 -6.0704,6.2005 -14.8218,5.5999 -21.6331,1.2393 -16.4152,-10.5091 -18.6341,-34.5447 -21.7335,-52.2289 l -6.4333,-36.7018 -15.5333,0 22.5315,72.7594 c 1.1336,-0.5018 -5.3036,0.9306 -1.5004,2.6898 -0.697,-3.2817 5.4641,7.0134 7.9183,10.148 l 1.4743,2.3947 c 9,12.9107 17.043,16.7077 27.9763,16.7077 13.2667,0 21.8999,-7.3681 25.8667,-22.1037 9.1998,14.8734 19.9332,22.31 32.2333,22.31 8.0666,0 14.6996,-2.5143 19.9332,-7.5744 9.4972,-9.182 8.3682,-22.5386 6.4333,-34.4982 l -10.1665,-62.8333 z m -107.8021,88.6989 0.3123,0.1596 c 0,-0.0409 0.0406,-0.108 0.0542,-0.148 -0.1279,0.008 -0.2597,-6e-4 -0.3665,-0.0116"
       style="fill:#006946;fill-opacity:1;fill-rule:nonzero;stroke:none"
       id="path16" /><g
       transform="matrix(1,0,0,-1,225.3217,322.3219)"
       style=""
       id="text18"><path
         d="m 6.2524414,-4.1894531 c 0.012689,-0.067704 0.021153,-0.1375283 0.025391,-0.2094727 0.00846,-0.071936 0.012689,-0.1438756 0.012695,-0.2158203 -6.2e-6,-0.5162709 -0.1523498,-0.9246364 -0.4570312,-1.2250976 -0.3004613,-0.3004496 -0.7109426,-0.4506774 -1.2314453,-0.4506836 -0.5797566,6.2e-6 -1.0918004,0.1840881 -1.5361328,0.5522461 -0.4443386,0.3639376 -0.780764,0.882329 -1.0092774,1.5551757 l 4.1958008,-0.00635 m 1.015625,0.9140625 -5.4335937,0 c -0.025393,0.1608104 -0.04232,0.2877634 -0.050781,0.3808593 -0.00847,0.093102 -0.012697,0.1735054 -0.012695,0.241211 -1.8e-6,0.5882182 0.1798483,1.0431331 0.5395508,1.3647461 0.3639296,0.32161553 0.8759734,0.48242266 1.5361328,0.48242186 0.5078081,8e-7 0.9881136,-0.057128 1.440918,-0.17138672 C 5.7403914,-1.0917958 6.1614522,-1.2589506 6.5507812,-1.4790039 L 6.3286133,-0.32373047 C 5.9096621,-0.15445948 5.475906,-0.02750648 5.0273437,0.05712891 4.5830032,0.14176418 4.1302042,0.18408185 3.6689453,0.18408203 2.68294,0.18408185 1.9233379,-0.0507812 1.3901367,-0.52050781 0.8611645,-0.99446515 0.59667909,-1.6652002 0.59667969,-2.5327148 c -6e-7,-0.7405567 0.13118417,-1.4282187 0.39355469,-2.0629883 0.26660032,-0.6389922 0.65592282,-1.2081648 1.16796872,-1.7075196 0.3300757,-0.3131444 0.7215141,-0.5543551 1.1743164,-0.7236328 0.4570275,-0.1692636 0.9415648,-0.2538989 1.4536133,-0.2539062 0.8040309,7.3e-6 1.4430276,0.241218 1.9169922,0.7236328 0.4781829,0.4824279 0.7172777,1.1298882 0.7172852,1.9423828 -7.5e-6,0.1946659 -0.012703,0.4041383 -0.038086,0.628418 -0.025398,0.2200558 -0.063484,0.4570348 -0.1142578,0.7109375"
         style="font-size:13px;font-style:italic;font-variant:normal;font-weight:normal;writing-mode:lr-tb;fill:#006946;fill-opacity:1;fill-rule:nonzero;stroke:none;font-family:FranklinGothic;-inkscape-font-specification:FranklinGothic-Book Italic"
         id="path2848" /><path
         d="M 14.39017,-7.109375 11.127474,-3.6245117 13.126986,0 11.787631,0 10.283236,-2.8183594 7.6680017,0 6.2524743,0 9.7500329,-3.7451172 7.8901696,-7.109375 l 1.3393555,0 1.3647459,2.5708008 2.380371,-2.5708008 1.415528,0"
         style="font-size:13px;font-style:italic;font-variant:normal;font-weight:normal;writing-mode:lr-tb;fill:#006946;fill-opacity:1;fill-rule:nonzero;stroke:none;font-family:FranklinGothic;-inkscape-font-specification:FranklinGothic-Book Italic"
         id="path2850" /><path
         d="m 19.016127,-6.8364258 -0.234864,1.1552735 c -0.279303,-0.2031192 -0.577643,-0.3554628 -0.895019,-0.4570313 -0.313157,-0.1015563 -0.639003,-0.1523375 -0.977539,-0.1523437 -0.372401,6.2e-6 -0.727869,0.065599 -1.066406,0.1967773 -0.334314,0.1311909 -0.615726,0.3173886 -0.844239,0.5585938 -0.363935,0.3681692 -0.645347,0.7998094 -0.844238,1.2949218 -0.198895,0.495121 -0.298342,1.0071647 -0.29834,1.5361328 -2e-6,0.6389995 0.15869,1.1150732 0.476074,1.4282227 0.321612,0.313152 0.808265,0.46972736 1.459961,0.46972656 0.321611,8e-7 0.662268,-0.0486645 1.021973,-0.1459961 0.363927,-0.0973297 0.74267,-0.24332566 1.13623,-0.43798826 l -0.222168,1.15527342 c -0.338547,0.13964853 -0.687667,0.24332681 -1.047363,0.31103515 -0.355473,0.07193996 -0.721521,0.10790998 -1.098144,0.10791016 -0.943688,-1.8e-7 -1.669436,-0.23486323 -2.177246,-0.70458984 -0.507814,-0.47395734 -0.76172,-1.14892409 -0.761719,-2.02490239 -10e-7,-0.7363248 0.131184,-1.4134075 0.393554,-2.03125 0.266601,-0.6220651 0.660155,-1.1806583 1.180665,-1.6757812 0.355466,-0.3385351 0.772295,-0.594557 1.250488,-0.7680664 0.478186,-0.1734954 1.000809,-0.2602466 1.567871,-0.2602539 0.330073,7.3e-6 0.658035,0.038093 0.983887,0.1142578 0.32584,0.071947 0.658033,0.1819731 0.996582,0.3300781"
         style="font-size:13px;font-style:italic;font-variant:normal;font-weight:normal;writing-mode:lr-tb;fill:#006946;fill-opacity:1;fill-rule:nonzero;stroke:none;font-family:FranklinGothic;-inkscape-font-specification:FranklinGothic-Book Italic"
         id="path2852" /><path
         d="m 24.460842,-4.1894531 c 0.01269,-0.067704 0.02115,-0.1375283 0.02539,-0.2094727 0.0085,-0.071936 0.01269,-0.1438756 0.0127,-0.2158203 -6e-6,-0.5162709 -0.15235,-0.9246364 -0.457031,-1.2250976 -0.300461,-0.3004496 -0.710943,-0.4506774 -1.231445,-0.4506836 -0.579757,6.2e-6 -1.091801,0.1840881 -1.536133,0.5522461 -0.444339,0.3639376 -0.780764,0.882329 -1.009278,1.5551757 l 4.195801,-0.00635 m 1.015625,0.9140625 -5.433594,0 c -0.02539,0.1608104 -0.04232,0.2877634 -0.05078,0.3808593 -0.0085,0.093102 -0.0127,0.1735054 -0.0127,0.241211 -2e-6,0.5882182 0.179848,1.0431331 0.539551,1.3647461 0.363929,0.32161553 0.875973,0.48242266 1.536132,0.48242186 0.507809,8e-7 0.988114,-0.057128 1.440918,-0.17138672 0.452794,-0.11425674 0.873855,-0.28141154 1.263184,-0.50146484 l -0.222168,1.15527343 c -0.418951,0.16927099 -0.852707,0.29622399 -1.30127,0.38085938 -0.44434,0.08463527 -0.897139,0.12695294 -1.358398,0.12695312 -0.986005,-1.8e-7 -1.745607,-0.23486323 -2.278809,-0.70458984 -0.528972,-0.47395734 -0.793457,-1.14469239 -0.793457,-2.01220699 0,-0.7405567 0.131185,-1.4282187 0.393555,-2.0629883 0.2666,-0.6389922 0.655923,-1.2081648 1.167969,-1.7075196 0.330075,-0.3131444 0.721514,-0.5543551 1.174316,-0.7236328 0.457028,-0.1692636 0.941565,-0.2538989 1.453614,-0.2539062 0.80403,7.3e-6 1.443027,0.241218 1.916992,0.7236328 0.478183,0.4824279 0.717277,1.1298882 0.717285,1.9423828 -8e-6,0.1946659 -0.0127,0.4041383 -0.03809,0.628418 -0.0254,0.2200558 -0.06348,0.4570348 -0.114258,0.7109375"
         style="font-size:13px;font-style:italic;font-variant:normal;font-weight:normal;writing-mode:lr-tb;fill:#006946;fill-opacity:1;fill-rule:nonzero;stroke:none;font-family:FranklinGothic;-inkscape-font-specification:FranklinGothic-Book Italic"
         id="path2854" /><path
         d="m 27.34877,-9.8769531 1.167969,0 L 26.593399,0 25.42543,0 27.34877,-9.8769531"
         style="font-size:13px;font-style:italic;font-variant:normal;font-weight:normal;writing-mode:lr-tb;fill:#006946;fill-opacity:1;fill-rule:nonzero;stroke:none;font-family:FranklinGothic;-inkscape-font-specification:FranklinGothic-Book Italic"
         id="path2856" /><path
         d="m 30.338772,-9.8769531 1.167969,0 L 29.583401,0 l -1.167969,0 1.92334,-9.8769531"
         style="font-size:13px;font-style:italic;font-variant:normal;font-weight:normal;writing-mode:lr-tb;fill:#006946;fill-opacity:1;fill-rule:nonzero;stroke:none;font-family:FranklinGothic;-inkscape-font-specification:FranklinGothic-Book Italic"
         id="path2858" /><path
         d="m 37.200842,-4.1894531 c 0.01269,-0.067704 0.02115,-0.1375283 0.02539,-0.2094727 0.0085,-0.071936 0.01269,-0.1438756 0.0127,-0.2158203 -6e-6,-0.5162709 -0.15235,-0.9246364 -0.457031,-1.2250976 -0.300462,-0.3004496 -0.710943,-0.4506774 -1.231446,-0.4506836 -0.579756,6.2e-6 -1.0918,0.1840881 -1.536133,0.5522461 -0.444338,0.3639376 -0.780764,0.882329 -1.009277,1.5551757 l 4.195801,-0.00635 m 1.015625,0.9140625 -5.433594,0 c -0.02539,0.1608104 -0.04232,0.2877634 -0.05078,0.3808593 -0.0085,0.093102 -0.0127,0.1735054 -0.0127,0.241211 -2e-6,0.5882182 0.179848,1.0431331 0.53955,1.3647461 0.36393,0.32161553 0.875974,0.48242266 1.536133,0.48242186 0.507808,8e-7 0.988114,-0.057128 1.440918,-0.17138672 0.452794,-0.11425674 0.873855,-0.28141154 1.263184,-0.50146484 l -0.222168,1.15527343 c -0.418951,0.16927099 -0.852708,0.29622399 -1.30127,0.38085938 -0.44434,0.08463527 -0.897139,0.12695294 -1.358398,0.12695312 -0.986005,-1.8e-7 -1.745608,-0.23486323 -2.278809,-0.70458984 -0.528972,-0.47395734 -0.793457,-1.14469239 -0.793457,-2.01220699 0,-0.7405567 0.131184,-1.4282187 0.393555,-2.0629883 0.2666,-0.6389922 0.655923,-1.2081648 1.167969,-1.7075196 0.330075,-0.3131444 0.721514,-0.5543551 1.174316,-0.7236328 0.457027,-0.1692636 0.941565,-0.2538989 1.453613,-0.2539062 0.804031,7.3e-6 1.443028,0.241218 1.916992,0.7236328 0.478183,0.4824279 0.717278,1.1298882 0.717286,1.9423828 -8e-6,0.1946659 -0.0127,0.4041383 -0.03809,0.628418 -0.0254,0.2200558 -0.06348,0.4570348 -0.114258,0.7109375"
         style="font-size:13px;font-style:italic;font-variant:normal;font-weight:normal;writing-mode:lr-tb;fill:#006946;fill-opacity:1;fill-rule:nonzero;stroke:none;font-family:FranklinGothic;-inkscape-font-specification:FranklinGothic-Book Italic"
         id="path2860" /><path
         d="M 44.951077,-4.2910156 44.119534,0 42.945217,0 43.77676,-4.246582 c 0.03808,-0.1988888 0.0677,-0.3745071 0.08887,-0.5268555 0.02115,-0.1523388 0.03173,-0.2729442 0.03174,-0.3618164 -7e-6,-0.3554633 -0.112148,-0.632644 -0.336426,-0.831543 -0.22429,-0.198887 -0.53744,-0.2983336 -0.939453,-0.2983398 -0.626307,6.2e-6 -1.165857,0.2094787 -1.618653,0.628418 -0.452802,0.4147187 -0.749026,0.9796596 -0.888672,1.6948242 L 39.333401,0 l -1.167969,0 1.377441,-7.109375 1.167969,0 -0.234863,1.1171875 c 0.325843,-0.4104754 0.717282,-0.7278579 1.174316,-0.9521484 0.457027,-0.2242767 0.937333,-0.3364185 1.440918,-0.3364258 0.626296,7.3e-6 1.110834,0.1692779 1.453614,0.5078125 0.346998,0.3385481 0.5205,0.8146218 0.520507,1.4282226 -7e-6,0.152349 -0.01059,0.315272 -0.03174,0.4887696 -0.01693,0.1735073 -0.04444,0.3618209 -0.08252,0.5649414"
         style="font-size:13px;font-style:italic;font-variant:normal;font-weight:normal;writing-mode:lr-tb;fill:#006946;fill-opacity:1;fill-rule:nonzero;stroke:none;font-family:FranklinGothic;-inkscape-font-specification:FranklinGothic-Book Italic"
         id="path2862" /><path
         d="m 51.802128,-6.8364258 -0.234863,1.1552735 c -0.279304,-0.2031192 -0.577643,-0.3554628 -0.89502,-0.4570313 -0.313157,-0.1015563 -0.639003,-0.1523375 -0.977539,-0.1523437 -0.3724,6.2e-6 -0.727869,0.065599 -1.066406,0.1967773 -0.334314,0.1311909 -0.615726,0.3173886 -0.844239,0.5585938 -0.363934,0.3681692 -0.645347,0.7998094 -0.844238,1.2949218 -0.198895,0.495121 -0.298342,1.0071647 -0.29834,1.5361328 -2e-6,0.6389995 0.15869,1.1150732 0.476075,1.4282227 0.321612,0.313152 0.808265,0.46972736 1.45996,0.46972656 0.321611,8e-7 0.662268,-0.0486645 1.021973,-0.1459961 0.363927,-0.0973297 0.74267,-0.24332566 1.136231,-0.43798826 l -0.222168,1.15527342 C 50.175007,-0.09521475 49.825886,0.00846353 49.46619,0.07617187 49.110717,0.14811183 48.744669,0.18408185 48.368046,0.18408203 47.424358,0.18408185 46.69861,-0.0507812 46.1908,-0.52050781 45.682986,-0.99446515 45.42908,-1.6694319 45.429081,-2.5454102 c -10e-7,-0.7363248 0.131184,-1.4134075 0.393555,-2.03125 0.2666,-0.6220651 0.660154,-1.1806583 1.180664,-1.6757812 0.355466,-0.3385351 0.772295,-0.594557 1.250488,-0.7680664 0.478186,-0.1734954 1.000809,-0.2602466 1.567871,-0.2602539 0.330073,7.3e-6 0.658035,0.038093 0.983887,0.1142578 0.32584,0.071947 0.658034,0.1819731 0.996582,0.3300781"
         style="font-size:13px;font-style:italic;font-variant:normal;font-weight:normal;writing-mode:lr-tb;fill:#006946;fill-opacity:1;fill-rule:nonzero;stroke:none;font-family:FranklinGothic;-inkscape-font-specification:FranklinGothic-Book Italic"
         id="path2864" /><path
         d="m 57.246841,-4.1894531 c 0.01269,-0.067704 0.02115,-0.1375283 0.02539,-0.2094727 0.0085,-0.071936 0.01269,-0.1438756 0.0127,-0.2158203 -6e-6,-0.5162709 -0.15235,-0.9246364 -0.457031,-1.2250976 -0.300461,-0.3004496 -0.710943,-0.4506774 -1.231445,-0.4506836 -0.579757,6.2e-6 -1.091801,0.1840881 -1.536133,0.5522461 -0.444339,0.3639376 -0.780764,0.882329 -1.009277,1.5551757 l 4.1958,-0.00635 m 1.015625,0.9140625 -5.433593,0 c -0.02539,0.1608104 -0.04232,0.2877634 -0.05078,0.3808593 -0.0085,0.093102 -0.0127,0.1735054 -0.0127,0.241211 -2e-6,0.5882182 0.179848,1.0431331 0.539551,1.3647461 0.36393,0.32161553 0.875973,0.48242266 1.536133,0.48242186 0.507808,8e-7 0.988113,-0.057128 1.440918,-0.17138672 0.452793,-0.11425674 0.873854,-0.28141154 1.263183,-0.50146484 l -0.222168,1.15527343 c -0.418951,0.16927099 -0.852707,0.29622399 -1.301269,0.38085938 -0.444341,0.08463527 -0.89714,0.12695294 -1.358399,0.12695312 -0.986005,-1.8e-7 -1.745607,-0.23486323 -2.278808,-0.70458984 -0.528972,-0.47395734 -0.793458,-1.14469239 -0.793457,-2.01220699 -10e-7,-0.7405567 0.131184,-1.4282187 0.393554,-2.0629883 0.266601,-0.6389922 0.655923,-1.2081648 1.167969,-1.7075196 0.330076,-0.3131444 0.721514,-0.5543551 1.174317,-0.7236328 0.457027,-0.1692636 0.941564,-0.2538989 1.453613,-0.2539062 0.804031,7.3e-6 1.443027,0.241218 1.916992,0.7236328 0.478183,0.4824279 0.717278,1.1298882 0.717285,1.9423828 -7e-6,0.1946659 -0.0127,0.4041383 -0.03809,0.628418 -0.0254,0.2200558 -0.06348,0.4570348 -0.114258,0.7109375"
         style="font-size:13px;font-style:italic;font-variant:normal;font-weight:normal;writing-mode:lr-tb;fill:#006946;fill-opacity:1;fill-rule:nonzero;stroke:none;font-family:FranklinGothic;-inkscape-font-specification:FranklinGothic-Book Italic"
         id="path2866" /><path
         d="m 63.384769,-9.8769531 1.167969,0 -0.285644,1.4790039 -1.167969,0 0.285644,-1.4790039 m -0.533203,2.7675781 1.167969,0 L 62.629398,0 61.46143,0 62.851566,-7.109375"
         style="font-size:13px;font-style:italic;font-variant:normal;font-weight:normal;writing-mode:lr-tb;fill:#006946;fill-opacity:1;fill-rule:nonzero;stroke:none;font-family:FranklinGothic;-inkscape-font-specification:FranklinGothic-Book Italic"
         id="path2868" /><path
         d="M 71.237076,-4.2910156 70.405533,0 69.231216,0 70.062759,-4.246582 c 0.03808,-0.1988888 0.0677,-0.3745071 0.08887,-0.5268555 0.02115,-0.1523388 0.03173,-0.2729442 0.03174,-0.3618164 -6e-6,-0.3554633 -0.112148,-0.632644 -0.336426,-0.831543 -0.224289,-0.198887 -0.53744,-0.2983336 -0.939453,-0.2983398 -0.626306,6.2e-6 -1.165857,0.2094787 -1.618652,0.628418 -0.452803,0.4147187 -0.749026,0.9796596 -0.888672,1.6948242 L 65.6194,0 l -1.167969,0 1.377442,-7.109375 1.167968,0 -0.234863,1.1171875 c 0.325843,-0.4104754 0.717282,-0.7278579 1.174317,-0.9521484 0.457026,-0.2242767 0.937332,-0.3364185 1.440918,-0.3364258 0.626296,7.3e-6 1.110833,0.1692779 1.453613,0.5078125 0.346998,0.3385481 0.5205,0.8146218 0.520508,1.4282226 -8e-6,0.152349 -0.01059,0.315272 -0.03174,0.4887696 -0.01693,0.1735073 -0.04444,0.3618209 -0.08252,0.5649414"
         style="font-size:13px;font-style:italic;font-variant:normal;font-weight:normal;writing-mode:lr-tb;fill:#006946;fill-opacity:1;fill-rule:nonzero;stroke:none;font-family:FranklinGothic;-inkscape-font-specification:FranklinGothic-Book Italic"
         id="path2870" /><path
         d="M 86.04174,-4.2910156 85.210197,0 84.042229,0 84.861076,-4.2529297 c 0.03384,-0.1819617 0.05924,-0.3385371 0.07617,-0.4697265 0.01692,-0.1311801 0.02538,-0.2433219 0.02539,-0.3364258 -1.1e-5,-0.380854 -0.105805,-0.6770776 -0.317383,-0.8886719 -0.211599,-0.2115824 -0.507822,-0.3173766 -0.888672,-0.3173828 -0.567066,6.2e-6 -1.072762,0.2137105 -1.51709,0.6411133 -0.444343,0.4231822 -0.732103,0.9754278 -0.863281,1.6567382 L 80.595451,0 79.427483,0 80.259026,-4.2529297 c 0.03385,-0.1565711 0.05924,-0.3004512 0.07617,-0.4316406 0.01692,-0.1354119 0.02538,-0.2560172 0.02539,-0.3618164 -6e-6,-0.3850857 -0.1058,-0.6834253 -0.317383,-0.8950195 -0.211594,-0.2158142 -0.503586,-0.3237243 -0.875976,-0.3237305 -0.575525,6.2e-6 -1.085453,0.2137105 -1.529785,0.6411133 -0.444339,0.4231822 -0.732099,0.9754278 -0.863282,1.6567382 L 75.993401,0 l -1.167969,0 1.390137,-7.109375 1.167968,0 -0.222168,1.1044922 c 0.31738,-0.4147071 0.68766,-0.7299737 1.11084,-0.9458008 0.427405,-0.2200449 0.884435,-0.3300708 1.371094,-0.3300781 0.51627,7.3e-6 0.939447,0.1354238 1.269531,0.40625 0.334303,0.2708399 0.535312,0.6474671 0.603028,1.1298828 0.355461,-0.4993427 0.765942,-0.8802017 1.231445,-1.1425781 0.469718,-0.2623627 0.964834,-0.3935474 1.485351,-0.3935547 0.609365,7.3e-6 1.079091,0.1756256 1.40918,0.5268555 0.334298,0.3512433 0.501453,0.8484759 0.501465,1.4916992 -1.2e-5,0.1396535 -0.0085,0.294113 -0.02539,0.4633789 -0.01694,0.1650437 -0.04233,0.3343143 -0.07617,0.5078125"
         style="font-size:13px;font-style:italic;font-variant:normal;font-weight:normal;writing-mode:lr-tb;fill:#006946;fill-opacity:1;fill-rule:nonzero;stroke:none;font-family:FranklinGothic;-inkscape-font-specification:FranklinGothic-Book Italic"
         id="path2872" /><path
         d="m 91.241844,-4.1894531 c 0.01269,-0.067704 0.02115,-0.1375283 0.02539,-0.2094727 0.0085,-0.071936 0.01269,-0.1438756 0.01269,-0.2158203 -6e-6,-0.5162709 -0.15235,-0.9246364 -0.457031,-1.2250976 -0.300461,-0.3004496 -0.710943,-0.4506774 -1.231445,-0.4506836 -0.579757,6.2e-6 -1.091801,0.1840881 -1.536133,0.5522461 -0.444339,0.3639376 -0.780764,0.882329 -1.009278,1.5551757 l 4.195801,-0.00635 m 1.015625,0.9140625 -5.433594,0 c -0.02539,0.1608104 -0.04232,0.2877634 -0.05078,0.3808593 -0.0085,0.093102 -0.0127,0.1735054 -0.01269,0.241211 -2e-6,0.5882182 0.179848,1.0431331 0.539551,1.3647461 0.363929,0.32161553 0.875973,0.48242266 1.536132,0.48242186 0.507809,8e-7 0.988114,-0.057128 1.440918,-0.17138672 0.452794,-0.11425674 0.873855,-0.28141154 1.263184,-0.50146484 l -0.222168,1.15527343 c -0.418951,0.16927099 -0.852707,0.29622399 -1.301269,0.38085938 -0.444341,0.08463527 -0.89714,0.12695294 -1.358399,0.12695312 -0.986005,-1.8e-7 -1.745607,-0.23486323 -2.278809,-0.70458984 -0.528972,-0.47395734 -0.793457,-1.14469239 -0.793457,-2.01220699 0,-0.7405567 0.131185,-1.4282187 0.393555,-2.0629883 0.2666,-0.6389922 0.655923,-1.2081648 1.167969,-1.7075196 0.330076,-0.3131444 0.721514,-0.5543551 1.174316,-0.7236328 0.457028,-0.1692636 0.941565,-0.2538989 1.453614,-0.2539062 0.80403,7.3e-6 1.443027,0.241218 1.916992,0.7236328 0.478183,0.4824279 0.717278,1.1298882 0.717285,1.9423828 -7e-6,0.1946659 -0.0127,0.4041383 -0.03809,0.628418 -0.0254,0.2200558 -0.06348,0.4570348 -0.114258,0.7109375"
         style="font-size:13px;font-style:italic;font-variant:normal;font-weight:normal;writing-mode:lr-tb;fill:#006946;fill-opacity:1;fill-rule:nonzero;stroke:none;font-family:FranklinGothic;-inkscape-font-specification:FranklinGothic-Book Italic"
         id="path2874" /><path
         d="M 98.731819,-4.0561523 97.938362,0 96.770393,0 96.986214,-1.0791016 c -0.342779,0.42317778 -0.734217,0.74056027 -1.174317,0.95214848 C 95.376021,0.08040357 94.889368,0.18408185 94.351936,0.18408203 93.746791,0.18408185 93.249559,0 92.860237,-0.36816406 92.475145,-0.74055916 92.2826,-1.2166329 92.2826,-1.7963867 c 0,-0.8294245 0.330078,-1.4853483 0.990235,-1.9677735 0.664386,-0.4824176 1.578447,-0.7236283 2.742187,-0.7236328 l 1.625,0 0.06348,-0.3110351 c 0.0085,-0.033849 0.01481,-0.069819 0.01904,-0.1079102 0.0042,-0.042313 0.0063,-0.1057892 0.0063,-0.1904297 -6e-6,-0.3766221 -0.154465,-0.668614 -0.463378,-0.8759765 -0.304693,-0.2115824 -0.734217,-0.3173766 -1.288575,-0.3173828 -0.380863,6.2e-6 -0.772301,0.048672 -1.174316,0.1459961 -0.397789,0.097337 -0.808271,0.2433327 -1.231445,0.4379882 L 93.7743,-6.7856445 c 0.440101,-0.1650321 0.869626,-0.2877534 1.288574,-0.3681641 0.423173,-0.084628 0.831539,-0.1269458 1.225097,-0.1269531 0.837886,7.3e-6 1.474767,0.1819732 1.910645,0.5458984 0.440097,0.3639387 0.660149,0.8929095 0.660156,1.5869141 -7e-6,0.1396534 -0.01059,0.3046923 -0.03174,0.4951172 -0.02117,0.1862024 -0.0529,0.3850954 -0.09521,0.5966797 m -1.263183,0.4824218 -1.167969,0 c -0.956384,3.6e-6 -1.665205,0.1290725 -2.126465,0.3872071 -0.457033,0.2539091 -0.685549,0.6495793 -0.685547,1.1870117 -2e-6,0.3723974 0.116372,0.6643893 0.349121,0.8759765 0.236977,0.2115895 0.562823,0.31738366 0.977539,0.31738286 0.634762,8e-7 1.189124,-0.22639876 1.663086,-0.67919926 0.473953,-0.4570293 0.787104,-1.0664037 0.939453,-1.828125 l 0.05078,-0.2602539"
         style="font-size:13px;font-style:italic;font-variant:normal;font-weight:normal;writing-mode:lr-tb;fill:#006946;fill-opacity:1;fill-rule:nonzero;stroke:none;font-family:FranklinGothic;-inkscape-font-specification:FranklinGothic-Book Italic"
         id="path2876" /><path
         d="m 105.2044,-6.8999023 -0.22217,1.1044921 c -0.30892,-0.1692648 -0.63477,-0.2962178 -0.97754,-0.3808593 -0.34278,-0.084629 -0.69613,-0.1269469 -1.06006,-0.1269532 -0.61361,6.3e-6 -1.09814,0.1058005 -1.45361,0.3173829 -0.35124,0.2073625 -0.52686,0.4908909 -0.52686,0.8505859 0,0.41895 0.41048,0.7405643 1.23145,0.9648437 0.0635,0.016931 0.11002,0.029627 0.13965,0.038086 l 0.37451,0.1142578 c 0.77864,0.2158241 1.29703,0.4422236 1.55518,0.6791992 0.26236,0.2369823 0.39354,0.5607124 0.39355,0.9711914 -1e-5,0.7532568 -0.30046,1.366863 -0.90137,1.84082033 -0.59668,0.47395839 -1.37956,0.71093732 -2.34863,0.7109375 -0.37663,-1.8e-7 -0.7723,-0.0359702 -1.18701,-0.10791016 -0.414716,-0.0719401 -0.871746,-0.18408192 -1.371095,-0.33642578 l 0.228516,-1.20605469 c 0.427408,0.2200533 0.848469,0.3872081 1.263179,0.50146485 0.41472,0.11425866 0.8125,0.17138751 1.19336,0.17138672 0.57129,7.9e-7 1.03467,-0.12272044 1.39014,-0.36816407 0.3597,-0.2454413 0.53955,-0.5564761 0.53955,-0.9331055 0,-0.4062475 -0.46973,-0.7342094 -1.40918,-0.9838867 l -0.1206,-0.031738 -0.39991,-0.1015625 c -0.59245,-0.1565721 -1.0262,-0.3618128 -1.30127,-0.6157226 -0.275062,-0.258134 -0.412595,-0.5860959 -0.412593,-0.9838867 -2e-6,-0.7574814 0.283523,-1.3583923 0.850583,-1.8027344 0.57129,-0.4443289 1.3457,-0.6664966 2.32324,-0.6665039 0.38509,7.3e-6 0.7596,0.031746 1.12354,0.095215 0.36816,0.063484 0.72997,0.1586985 1.08545,0.2856446"
         style="font-size:13px;font-style:italic;font-variant:normal;font-weight:normal;writing-mode:lr-tb;fill:#006946;fill-opacity:1;fill-rule:nonzero;stroke:none;font-family:FranklinGothic;-inkscape-font-specification:FranklinGothic-Book Italic"
         id="path2878" /><path
         d="m 105.58003,-2.8183594 0.83155,-4.2910156 1.17431,0 -0.83154,4.246582 c -0.0423,0.2073595 -0.0741,0.3850937 -0.0952,0.5332032 -0.0169,0.1481141 -0.0254,0.2708353 -0.0254,0.368164 0,0.3597021 0.11003,0.6389987 0.33008,0.8378906 0.22005,0.19466243 0.53109,0.29199306 0.93311,0.29199223 0.6263,8.3e-7 1.16796,-0.21158753 1.625,-0.63476563 0.45702,-0.4231752 0.75536,-0.9923478 0.89502,-1.7075195 l 0.78076,-3.9355469 1.16797,0 L 110.98824,0 l -1.16797,0 0.23486,-1.1171875 c -0.33008,0.41471424 -0.72364,0.73632851 -1.18066,0.96484375 -0.45281,0.22428378 -0.93523,0.3364256 -1.44727,0.33642578 -0.62207,-1.8e-7 -1.10661,-0.16927085 -1.45361,-0.5078125 -0.34701,-0.34277277 -0.52051,-0.81884653 -0.52051,-1.42822263 0,-0.1269513 0.0106,-0.2856425 0.0317,-0.4760742 0.0212,-0.1904273 0.0529,-0.3872045 0.0952,-0.5903321"
         style="font-size:13px;font-style:italic;font-variant:normal;font-weight:normal;writing-mode:lr-tb;fill:#006946;fill-opacity:1;fill-rule:nonzero;stroke:none;font-family:FranklinGothic;-inkscape-font-specification:FranklinGothic-Book Italic"
         id="path2880" /><path
         d="m 117.56481,-6.0302734 c -0.11849,-0.063471 -0.25391,-0.1121358 -0.40625,-0.1459961 -0.15235,-0.033848 -0.31527,-0.050775 -0.48877,-0.050781 -0.62207,6.2e-6 -1.16585,0.2369852 -1.63135,0.7109375 -0.46549,0.4697316 -0.77441,1.1002649 -0.92675,1.8916016 L 113.3944,0 l -1.16797,0 1.39014,-7.109375 1.16797,0 -0.22217,1.1044922 c 0.30892,-0.4104754 0.67708,-0.725742 1.10449,-0.9458008 0.43164,-0.2200449 0.89079,-0.3300708 1.37744,-0.3300781 0.12695,7.3e-6 0.25179,0.00847 0.37452,0.025391 0.12271,0.012703 0.24543,0.035977 0.36816,0.069824 l -0.22217,1.1552735"
         style="font-size:13px;font-style:italic;font-variant:normal;font-weight:normal;writing-mode:lr-tb;fill:#006946;fill-opacity:1;fill-rule:nonzero;stroke:none;font-family:FranklinGothic;-inkscape-font-specification:FranklinGothic-Book Italic"
         id="path2882" /><path
         d="m 122.42884,-4.1894531 c 0.0127,-0.067704 0.0212,-0.1375283 0.0254,-0.2094727 0.008,-0.071936 0.0127,-0.1438756 0.0127,-0.2158203 -1e-5,-0.5162709 -0.15235,-0.9246364 -0.45703,-1.2250976 -0.30047,-0.3004496 -0.71095,-0.4506774 -1.23145,-0.4506836 -0.57976,6.2e-6 -1.0918,0.1840881 -1.53613,0.5522461 -0.44434,0.3639376 -0.78077,0.882329 -1.00928,1.5551757 l 4.1958,-0.00635 m 1.01563,0.9140625 -5.4336,0 c -0.0254,0.1608104 -0.0423,0.2877634 -0.0508,0.3808593 -0.008,0.093102 -0.0127,0.1735054 -0.0127,0.241211 -1e-5,0.5882182 0.17984,1.0431331 0.53955,1.3647461 0.36393,0.32161553 0.87597,0.48242266 1.53613,0.48242186 0.50781,8e-7 0.98811,-0.057128 1.44092,-0.17138672 0.45279,-0.11425674 0.87385,-0.28141154 1.26318,-0.50146484 l -0.22217,1.15527343 c -0.41895,0.16927099 -0.8527,0.29622399 -1.30127,0.38085938 -0.44434,0.08463527 -0.89714,0.12695294 -1.3584,0.12695312 -0.986,-1.8e-7 -1.7456,-0.23486323 -2.2788,-0.70458984 -0.52898,-0.47395734 -0.79346,-1.14469239 -0.79346,-2.01220699 0,-0.7405567 0.13118,-1.4282187 0.39355,-2.0629883 0.2666,-0.6389922 0.65593,-1.2081648 1.16797,-1.7075196 0.33008,-0.3131444 0.72152,-0.5543551 1.17432,-0.7236328 0.45703,-0.1692636 0.94156,-0.2538989 1.45361,-0.2539062 0.80403,7.3e-6 1.44303,0.241218 1.91699,0.7236328 0.47819,0.4824279 0.71728,1.1298882 0.71729,1.9423828 -1e-5,0.1946659 -0.0127,0.4041383 -0.0381,0.628418 -0.0254,0.2200558 -0.0635,0.4570348 -0.11425,0.7109375"
         style="font-size:13px;font-style:italic;font-variant:normal;font-weight:normal;writing-mode:lr-tb;fill:#006946;fill-opacity:1;fill-rule:nonzero;stroke:none;font-family:FranklinGothic;-inkscape-font-specification:FranklinGothic-Book Italic"
         id="path2884" /><path
         d="M 134.60974,-4.2910156 133.7782,0 l -1.16797,0 0.81885,-4.2529297 c 0.0338,-0.1819617 0.0592,-0.3385371 0.0762,-0.4697265 0.0169,-0.1311801 0.0254,-0.2433219 0.0254,-0.3364258 -1e-5,-0.380854 -0.10581,-0.6770776 -0.31738,-0.8886719 -0.2116,-0.2115824 -0.50783,-0.3173766 -0.88868,-0.3173828 -0.56706,6.2e-6 -1.07276,0.2137105 -1.51708,0.6411133 -0.44435,0.4231822 -0.73211,0.9754278 -0.86329,1.6567382 L 129.16345,0 l -1.16797,0 0.83155,-4.2529297 c 0.0338,-0.1565711 0.0592,-0.3004512 0.0762,-0.4316406 0.0169,-0.1354119 0.0254,-0.2560172 0.0254,-0.3618164 -1e-5,-0.3850857 -0.1058,-0.6834253 -0.31738,-0.8950195 -0.2116,-0.2158142 -0.50359,-0.3237243 -0.87598,-0.3237305 -0.57553,6.2e-6 -1.08545,0.2137105 -1.52979,0.6411133 -0.44433,0.4231822 -0.73209,0.9754278 -0.86328,1.6567382 L 124.5614,0 l -1.16797,0 1.39014,-7.109375 1.16797,0 -0.22217,1.1044922 c 0.31738,-0.4147071 0.68766,-0.7299737 1.11084,-0.9458008 0.4274,-0.2200449 0.88444,-0.3300708 1.37109,-0.3300781 0.51627,7.3e-6 0.93945,0.1354238 1.26953,0.40625 0.33431,0.2708399 0.53532,0.6474671 0.60303,1.1298828 0.35546,-0.4993427 0.76594,-0.8802017 1.23145,-1.1425781 0.46972,-0.2623627 0.96483,-0.3935474 1.48535,-0.3935547 0.60936,7.3e-6 1.07909,0.1756256 1.40918,0.5268555 0.3343,0.3512433 0.50145,0.8484759 0.50146,1.4916992 -1e-5,0.1396535 -0.008,0.294113 -0.0254,0.4633789 -0.0169,0.1650437 -0.0423,0.3343143 -0.0762,0.5078125"
         style="font-size:13px;font-style:italic;font-variant:normal;font-weight:normal;writing-mode:lr-tb;fill:#006946;fill-opacity:1;fill-rule:nonzero;stroke:none;font-family:FranklinGothic;-inkscape-font-specification:FranklinGothic-Book Italic"
         id="path2886" /><path
         d="m 139.80984,-4.1894531 c 0.0127,-0.067704 0.0212,-0.1375283 0.0254,-0.2094727 0.008,-0.071936 0.0127,-0.1438756 0.0127,-0.2158203 -1e-5,-0.5162709 -0.15235,-0.9246364 -0.45703,-1.2250976 -0.30046,-0.3004496 -0.71094,-0.4506774 -1.23145,-0.4506836 -0.57975,6.2e-6 -1.0918,0.1840881 -1.53613,0.5522461 -0.44434,0.3639376 -0.78076,0.882329 -1.00928,1.5551757 l 4.1958,-0.00635 m 1.01563,0.9140625 -5.43359,0 c -0.0254,0.1608104 -0.0423,0.2877634 -0.0508,0.3808593 -0.008,0.093102 -0.0127,0.1735054 -0.0127,0.241211 0,0.5882182 0.17985,1.0431331 0.53955,1.3647461 0.36393,0.32161553 0.87597,0.48242266 1.53613,0.48242186 0.50781,8e-7 0.98812,-0.057128 1.44092,-0.17138672 0.45279,-0.11425674 0.87386,-0.28141154 1.26318,-0.50146484 l -0.22216,1.15527343 c -0.41895,0.16927099 -0.85271,0.29622399 -1.30127,0.38085938 -0.44434,0.08463527 -0.89714,0.12695294 -1.3584,0.12695312 -0.98601,-1.8e-7 -1.74561,-0.23486323 -2.27881,-0.70458984 -0.52897,-0.47395734 -0.79346,-1.14469239 -0.79346,-2.01220699 0,-0.7405567 0.13119,-1.4282187 0.39356,-2.0629883 0.2666,-0.6389922 0.65592,-1.2081648 1.16797,-1.7075196 0.33007,-0.3131444 0.72151,-0.5543551 1.17431,-0.7236328 0.45703,-0.1692636 0.94157,-0.2538989 1.45362,-0.2539062 0.80403,7.3e-6 1.44302,0.241218 1.91699,0.7236328 0.47818,0.4824279 0.71728,1.1298882 0.71728,1.9423828 0,0.1946659 -0.0127,0.4041383 -0.0381,0.628418 -0.0254,0.2200558 -0.0635,0.4570348 -0.11426,0.7109375"
         style="font-size:13px;font-style:italic;font-variant:normal;font-weight:normal;writing-mode:lr-tb;fill:#006946;fill-opacity:1;fill-rule:nonzero;stroke:none;font-family:FranklinGothic;-inkscape-font-specification:FranklinGothic-Book Italic"
         id="path2888" /><path
         d="M 147.56007,-4.2910156 146.72853,0 l -1.17432,0 0.83155,-4.246582 c 0.0381,-0.1988888 0.0677,-0.3745071 0.0889,-0.5268555 0.0212,-0.1523388 0.0317,-0.2729442 0.0317,-0.3618164 0,-0.3554633 -0.11215,-0.632644 -0.33642,-0.831543 -0.22429,-0.198887 -0.53744,-0.2983336 -0.93946,-0.2983398 -0.6263,6.2e-6 -1.16585,0.2094787 -1.61865,0.628418 -0.4528,0.4147187 -0.74902,0.9796596 -0.88867,1.6948242 L 141.9424,0 l -1.16797,0 1.37744,-7.109375 1.16797,0 -0.23486,1.1171875 c 0.32584,-0.4104754 0.71728,-0.7278579 1.17431,-0.9521484 0.45703,-0.2242767 0.93733,-0.3364185 1.44092,-0.3364258 0.6263,7.3e-6 1.11083,0.1692779 1.45361,0.5078125 0.347,0.3385481 0.5205,0.8146218 0.52051,1.4282226 -1e-5,0.152349 -0.0106,0.315272 -0.0317,0.4887696 -0.0169,0.1735073 -0.0444,0.3618209 -0.0825,0.5649414"
         style="font-size:13px;font-style:italic;font-variant:normal;font-weight:normal;writing-mode:lr-tb;fill:#006946;fill-opacity:1;fill-rule:nonzero;stroke:none;font-family:FranklinGothic;-inkscape-font-specification:FranklinGothic-Book Italic"
         id="path2890" /><path
         d="m 152.93848,-7.109375 -0.17774,0.9077148 -2.32959,0 -0.75537,3.859375 c -0.0254,0.1438825 -0.0444,0.2644878 -0.0571,0.3618165 -0.0127,0.097333 -0.019,0.1735044 -0.019,0.2285156 0,0.2708348 0.0804,0.4676119 0.24121,0.590332 0.16504,0.1227224 0.42741,0.18408302 0.78711,0.18408204 l 1.18066,0 L 151.61182,0 150.49463,0 c -0.69401,0 -1.21241,-0.13541653 -1.55518,-0.40625 -0.33854,-0.27083266 -0.50781,-0.681314 -0.50781,-1.2314453 0,-0.097329 0.006,-0.2031232 0.019,-0.3173828 0.0127,-0.1184875 0.0317,-0.2475564 0.0571,-0.3872071 l 0.75537,-3.859375 -0.99023,0 0.18408,-0.9077148 0.97119,0 0.39356,-2.0185547 1.16797,0 -0.38721,2.0185547 2.33594,0"
         style="font-size:13px;font-style:italic;font-variant:normal;font-weight:normal;writing-mode:lr-tb;fill:#006946;fill-opacity:1;fill-rule:nonzero;stroke:none;font-family:FranklinGothic;-inkscape-font-specification:FranklinGothic-Book Italic"
         id="path2892" /></g><g
       transform="matrix(1,0,0,-1,195.9344,452.9563)"
       style=""
       id="text22"><path
         d="m 6.0421601,-26.072096 4.7499059,0 7.194711,22.3525003 4.365723,-22.3525003 3.440189,0 L 20.710988,0 15.943619,0 8.7663711,-22.492203 4.4006484,0 0.96045898,0 6.0421601,-26.072096"
         style="font-size:35.76399994px;font-style:italic;font-variant:normal;font-weight:normal;writing-mode:lr-tb;fill:#006946;fill-opacity:1;fill-rule:nonzero;stroke:none;font-family:FranklinGothic;-inkscape-font-specification:FranklinGothic-Book Italic"
         id="path2956" /><path
         d="m 48.275114,-24.063863 -0.715978,3.719595 c -1.117648,-1.129245 -2.305124,-1.967463 -3.56243,-2.514656 -1.245706,-0.547147 -2.596168,-0.820732 -4.051391,-0.820756 -1.990784,2.4e-5 -3.742892,0.477343 -5.25633,1.431957 -1.501818,0.95466 -2.799892,2.409899 -3.894224,4.365723 -0.698523,1.257345 -1.234051,2.590344 -1.606586,3.999002 -0.360905,1.397044 -0.541355,2.805715 -0.54135,4.2260195 -5e-6,2.3749604 0.611195,4.1852783 1.833604,5.430959 1.234036,1.2456892 3.02107,1.8685316 5.361107,1.8685293 1.618214,2.3e-6 3.17241,-0.2561198 4.662592,-0.7683672 1.490148,-0.5238831 2.939566,-1.3038914 4.34826,-2.3400274 l -0.820756,4.1736309 c -1.385409,0.59373897 -2.78826,1.04195272 -4.208557,1.34464257 -1.408688,0.30268975 -2.823181,0.45403465 -4.243482,0.45403516 -3.341242,-5.1e-7 -5.954852,-0.90806991 -7.840838,-2.72421093 -1.874353,-1.8161366 -2.811527,-4.3424322 -2.811526,-7.5788945 -1e-6,-2.0722514 0.355077,-4.1095864 1.065237,-6.1120114 0.721796,-2.002394 1.752105,-3.830175 3.090931,-5.483348 1.420308,-1.757908 3.038535,-3.055981 4.854684,-3.894225 1.82777,-0.838192 3.95242,-1.257301 6.373955,-1.257328 1.490148,2.7e-5 2.89882,0.209581 4.226019,0.628664 1.3388,0.407493 2.584485,1.024515 3.737059,1.851067"
         style="font-size:35.76399994px;font-style:italic;font-variant:normal;font-weight:normal;writing-mode:lr-tb;fill:#006946;fill-opacity:1;fill-rule:nonzero;stroke:none;font-family:FranklinGothic;-inkscape-font-specification:FranklinGothic-Book Italic"
         id="path2958" /><path
         d="m 57.192502,-26.072096 3.999002,0 L 66.028724,0 l -3.68467,0 -1.082699,-6.6882871 -11.735062,0 L 45.841623,0 42.122027,0 57.192502,-26.072096 m 1.274791,3.475116 -7.316951,12.9749273 9.569664,0 -2.252713,-12.9749273"
         style="font-size:35.76399994px;font-style:italic;font-variant:normal;font-weight:normal;writing-mode:lr-tb;fill:#006946;fill-opacity:1;fill-rule:nonzero;stroke:none;font-family:FranklinGothic;-inkscape-font-specification:FranklinGothic-Book Italic"
         id="path2960" /><path
         d="m 85.763051,-25.216414 -0.681053,3.440189 c -1.175855,-0.628641 -2.345867,-1.100139 -3.510041,-1.414494 -1.152567,-0.32595 -2.270191,-0.488937 -3.352875,-0.488961 -2.107201,2.4e-5 -3.783637,0.45988 -5.029313,1.379569 -1.245694,0.919733 -1.868536,2.142134 -1.868529,3.667207 -7e-6,0.838236 0.22701,1.484363 0.681053,1.938381 0.465669,0.442409 1.653144,0.919728 3.562429,1.431957 l 2.11301,0.523886 c 2.386579,0.617037 4.045552,1.402866 4.976924,2.357491 0.931335,0.943007 1.397011,2.270185 1.397031,3.9815386 -2e-5,2.6310813 -1.03615,4.7731937 -3.108394,6.4263438 -2.060636,1.65315393 -4.779023,2.47972992 -8.15517,2.47973043 -1.385397,-5.1e-7 -2.776606,-0.13970349 -4.173631,-0.41910938 -1.397034,-0.26776414 -2.799885,-0.68105214 -4.208557,-1.23986525 l 0.715979,-3.6322812 c 1.292252,0.8032969 2.584504,1.4086765 3.876762,1.8161406 1.303889,0.40747 2.601963,0.6112035 3.894224,0.6112012 2.200313,2.3e-6 3.964064,-0.4889581 5.291256,-1.4668828 1.327164,-0.9779171 1.990754,-2.2527069 1.99077,-3.8243731 -1.6e-5,-1.0477647 -0.267781,-1.839415 -0.803293,-2.3749529 -0.523902,-0.54716 -1.658989,-1.041942 -3.405264,-1.484346 l -2.11301,-0.54135 c -2.409886,-0.628651 -4.057217,-1.35045 -4.941998,-2.165398 -0.873148,-0.826562 -1.30972,-1.979111 -1.309717,-3.457652 -3e-6,-2.59613 0.995381,-4.720779 2.986155,-6.373955 2.002403,-1.66477 4.604371,-2.497167 7.805912,-2.497194 1.24567,2.7e-5 2.479713,0.110625 3.702132,0.331795 1.222384,0.221223 2.444785,0.553017 3.667208,0.995385"
         style="font-size:35.76399994px;font-style:italic;font-variant:normal;font-weight:normal;writing-mode:lr-tb;fill:#006946;fill-opacity:1;fill-rule:nonzero;stroke:none;font-family:FranklinGothic;-inkscape-font-specification:FranklinGothic-Book Italic"
         id="path2962" /></g><path
       d="m 267.5316,333.2778 -15.3281,-0.019 c -0.2146,6.5268 2.0608,15.5526 3.7131,21.9257 -9.9669,-14.7668 -22.3333,-22.1666 -37.1001,-22.1666 -17.2998,0 -31.5332,11.9381 -31.5332,29.7997 0,9.5667 4.2333,17.7336 12.6998,24.5002 8.4668,6.7665 24.2334,10.1667 47.3667,10.1667 2.0667,0 7.0333,-0.2001 14.9334,-0.6001 0.6999,4.2333 1.0667,7.7 1.0667,10.3666 0,12.4999 -7.5999,18.7333 -22.7667,18.7333 -13.3333,0 -22.8665,-5.5667 -28.5999,-16.7 l -14.4666,6.1668 c 7.8333,14.9666 21.8664,22.4665 42.0999,22.4665 17.4294,0 39.4665,-7.3565 39.4665,-28.2333 0,-3.6667 -2.5226,-20.7686 -7.5331,-51.3667 -1.2175,-7.4347 -4.7033,-17.5002 -4.0184,-25.0398 z m -7.115,52.2731 c -18.6253,1.586 -56.2334,2.7814 -56.2334,-23.4331 0,-10.4318 7.5254,-16.4002 17.5666,-16.4002 21.0169,0 35.4294,21.1113 38.6668,39.8333"
       style="fill:#006946;fill-opacity:1;fill-rule:nonzero;stroke:none"
       id="path26" /><g
       transform="matrix(0.9922,0,0,-1,198.5851,440.6956)"
       style=""
       id="text28"><path
         d="M 6.9818845,-4.0558402 6.1884886,0 5.0206097,0 5.2364134,-1.0790185 C 4.8936615,-0.65587335 4.5022532,-0.33851528 4.0621874,-0.12694336 3.6263449,0.08039738 3.1397292,0.18406768 2.6023388,0.18406787 1.9972401,0.18406768 1.5000458,0 1.1107544,-0.36813573 0.72569212,-0.74050217 0.53316156,-1.2165393 0.53316209,-1.7962485 c -5.3e-7,-0.8293606 0.33005186,-1.485234 0.99015821,-1.967622 0.6643347,-0.4823805 1.5783259,-0.7235726 2.7419764,-0.7235771 l 1.624875,0 0.063472,-0.3110112 c 0.00846,-0.033847 0.014804,-0.069814 0.019042,-0.1079019 0.00423,-0.042309 0.00634,-0.1057811 0.00635,-0.190415 -5.9e-6,-0.3765932 -0.1544535,-0.6685626 -0.4633432,-0.8759092 -0.3046693,-0.211566 -0.7341605,-0.3173521 -1.2884751,-0.3173584 -0.3808339,6.3e-6 -0.7722422,0.048668 -1.174226,0.1459849 -0.3977585,0.097329 -0.8082083,0.243314 -1.2313505,0.4379546 l 0.2031093,-1.0790185 c 0.4400679,-0.1650195 0.8695591,-0.2877312 1.2884751,-0.3681358 0.4231408,-0.084622 0.8314748,-0.1269361 1.2250034,-0.1269433 0.8378207,7.2e-6 1.4746526,0.1819592 1.9104975,0.5458564 0.4400634,0.3639107 0.6600983,0.8928408 0.6601054,1.5867919 -7.1e-6,0.1396427 -0.010586,0.3046689 -0.031736,0.4950791 -0.021164,0.1861881 -0.0529,0.3850658 -0.095208,0.5966338 m -1.2630863,0.4823847 -1.1678789,0 c -0.9563102,3.6e-6 -1.6650766,0.1290626 -2.1263012,0.3871773 -0.4569981,0.2538896 -0.6854959,0.6495294 -0.6854941,1.1869204 -1.8e-6,0.3723688 0.1163629,0.6643382 0.3490942,0.8759091 0.2369586,0.21157318 0.5627796,0.3173592 0.9774638,0.31735839 0.6347131,8.1e-7 1.1890319,-0.22638129 1.662958,-0.67914699 0.4739166,-0.4569941 0.7870433,-1.0663216 0.9393808,-1.8279843 l 0.050777,-0.2602339"
         style="font-size:12.9989996px;font-style:italic;font-variant:normal;font-weight:normal;writing-mode:lr-tb;fill:#006946;fill-opacity:1;fill-rule:nonzero;stroke:none;font-family:FranklinGothic;-inkscape-font-specification:FranklinGothic-Book Italic"
         id="path2895" /><path
         d="m 12.451112,-7.1088279 -0.17772,0.907645 -2.3294111,0 -0.7553129,3.859078 c -0.025391,0.1438713 -0.044432,0.2644674 -0.057125,0.3617886 -0.012696,0.097325 -0.019044,0.173491 -0.019042,0.228498 -2.2e-6,0.270814 0.080395,0.467576 0.2411923,0.5902866 0.1650238,0.1227129 0.4273732,0.18406884 0.7870487,0.18406786 l 1.180573,0 L 11.124554,0 10.007453,0 C 9.3134932,0 8.7951417,-0.13540611 8.4523965,-0.40621874 8.1138797,-0.67703055 7.9446221,-1.0874803 7.9446231,-1.6375693 c -1e-6,-0.097322 0.00635,-0.2031075 0.019042,-0.3173584 0.012693,-0.1184784 0.031735,-0.2475373 0.057124,-0.3871772 l 0.755313,-3.859078 -0.9901582,0 0.1840679,-0.907645 0.9711166,0 0.3935244,-2.0183994 1.1678792,0 -0.387178,2.0183994 2.335758,0"
         style="font-size:12.9989996px;font-style:italic;font-variant:normal;font-weight:normal;writing-mode:lr-tb;fill:#006946;fill-opacity:1;fill-rule:nonzero;stroke:none;font-family:FranklinGothic;-inkscape-font-specification:FranklinGothic-Book Italic"
         id="path2897" /><path
         d="M 22.6176,-4.2906854 21.786121,0 20.618242,0 21.437026,-4.2526024 c 0.03384,-0.1819477 0.05923,-0.338511 0.07617,-0.4696904 0.01692,-0.13117 0.02538,-0.2433032 0.02539,-0.3363999 -1.1e-5,-0.3808246 -0.105797,-0.6770255 -0.317358,-0.8886035 -0.211583,-0.2115661 -0.507784,-0.3173521 -0.888604,-0.3173584 -0.567022,6.3e-6 -1.07268,0.213694 -1.516973,0.641064 -0.444309,0.4231497 -0.732047,0.9753527 -0.863215,1.6566107 L 17.17173,0 16.003851,0 16.83533,-4.2526024 c 0.03384,-0.1565591 0.05923,-0.3004281 0.07617,-0.4316074 0.01692,-0.1354014 0.02538,-0.2559975 0.02539,-0.3617886 -6e-6,-0.3850561 -0.105792,-0.6833726 -0.317358,-0.8949506 -0.211578,-0.2157976 -0.503547,-0.3236993 -0.875909,-0.3237056 -0.575481,6.3e-6 -1.08537,0.213694 -1.529668,0.641064 -0.444304,0.4231497 -0.732042,0.9753527 -0.863214,1.6566107 L 12.570033,0 l -1.167879,0 1.39003,-7.1088279 1.167879,0 -0.222151,1.1044072 c 0.317355,-0.4146752 0.687606,-0.7299176 1.110754,-0.945728 0.427372,-0.220028 0.884367,-0.3300455 1.370988,-0.3300527 0.516231,7.2e-6 0.939375,0.1354134 1.269434,0.4062187 0.334277,0.2708191 0.535271,0.6474173 0.602981,1.1297959 0.355434,-0.4993043 0.765884,-0.880134 1.23135,-1.1424902 0.469682,-0.2623425 0.964761,-0.3935172 1.485238,-0.3935244 0.609317,7.2e-6 1.079007,0.175612 1.409071,0.5268149 0.334273,0.3512163 0.501414,0.8484107 0.501426,1.4915844 -1.2e-5,0.1396428 -0.0085,0.2940904 -0.02539,0.4633433 -0.01694,0.165031 -0.04233,0.3342886 -0.07617,0.5077734"
         style="font-size:12.9989996px;font-style:italic;font-variant:normal;font-weight:normal;writing-mode:lr-tb;fill:#006946;fill-opacity:1;fill-rule:nonzero;stroke:none;font-family:FranklinGothic;-inkscape-font-specification:FranklinGothic-Book Italic"
         id="path2899" /><path
         d="m 24.865869,0.18406787 c -0.833597,-1.9e-7 -1.493702,-0.25600237 -1.980316,-0.7680073 -0.482386,-0.51623517 -0.723578,-1.21865437 -0.723577,-2.10725967 -10e-7,-0.5162331 0.08251,-1.0409318 0.247539,-1.5740976 0.169257,-0.5373888 0.387176,-0.9880372 0.653759,-1.3519468 0.418911,-0.5670074 0.886485,-0.9859201 1.402724,-1.2567392 0.516233,-0.2708053 1.100171,-0.4062115 1.751818,-0.4062187 0.8082,7.2e-6 1.459842,0.251778 1.954928,0.7553129 0.499303,0.503548 0.748958,1.1615371 0.748965,1.9739692 -7e-6,0.5627862 -0.08252,1.1234521 -0.247539,1.6819995 -0.165033,0.558553 -0.380837,1.0218958 -0.647411,1.3900297 -0.414688,0.56701458 -0.880146,0.98592723 -1.396377,1.25673923 -0.516241,0.27081244 -1.104411,0.40621855 -1.764513,0.40621874 M 23.374285,-2.7292821 c -2e-6,0.6431817 0.133288,1.125566 0.399871,1.4471542 0.27081,0.31735936 0.679144,0.4760384 1.225004,0.47603759 0.782813,8.1e-7 1.430223,-0.34063019 1.942233,-1.02189399 0.51623,-0.6854916 0.774348,-1.552937 0.774355,-2.6023388 -7e-6,-0.6135545 -0.137528,-1.0768973 -0.412566,-1.3900297 -0.27505,-0.3131209 -0.679152,-0.4696842 -1.212309,-0.4696905 -0.440075,6.3e-6 -0.831483,0.1036766 -1.174226,0.3110113 -0.342751,0.2031151 -0.64953,0.514126 -0.92034,0.9330336 -0.19888,0.3131317 -0.353328,0.6706885 -0.463343,1.0726714 -0.105788,0.4019908 -0.158681,0.8166721 -0.158679,1.2440449"
         style="font-size:12.9989996px;font-style:italic;font-variant:normal;font-weight:normal;writing-mode:lr-tb;fill:#006946;fill-opacity:1;fill-rule:nonzero;stroke:none;font-family:FranklinGothic;-inkscape-font-specification:FranklinGothic-Book Italic"
         id="path2901" /><path
         d="m 34.83732,-6.8993714 -0.222151,1.1044072 c -0.308901,-0.1692518 -0.634722,-0.296195 -0.977464,-0.38083 -0.342752,-0.084623 -0.696077,-0.1269371 -1.059977,-0.1269434 -0.613563,6.3e-6 -1.098063,0.1057923 -1.453501,0.3173584 -0.351213,0.2073466 -0.526817,0.4908531 -0.526815,0.8505205 -2e-6,0.4189178 0.410447,0.7405073 1.23135,0.9647695 0.06347,0.01693 0.110014,0.029624 0.139638,0.038083 l 0.374483,0.114249 c 0.778581,0.2158075 1.296933,0.4421896 1.555056,0.679147 0.262344,0.236964 0.393518,0.5606692 0.393524,0.9711166 -6e-6,0.7531989 -0.300438,1.3667578 -0.901297,1.84067867 -0.596639,0.47392192 -1.379455,0.71088261 -2.348452,0.7108828 -0.376601,-1.9e-7 -0.772241,-0.0359674 -1.186921,-0.10790186 -0.414683,-0.07193457 -0.871678,-0.18406775 -1.370988,-0.33639989 l 0.228498,-1.20596192 c 0.427375,0.2200364 0.848403,0.3871784 1.263086,0.5014263 0.41468,0.11424987 0.812435,0.17137432 1.193268,0.17137353 0.571242,7.9e-7 1.034584,-0.122711 1.39003,-0.36813573 0.359668,-0.2454224 0.539504,-0.5564333 0.539509,-0.9330337 -5e-6,-0.4062162 -0.469695,-0.7341529 -1.409071,-0.983811 l -0.120597,-0.031736 -0.399871,-0.1015547 c -0.592405,-0.1565601 -1.026127,-0.361785 -1.30117,-0.6156753 -0.275045,-0.258114 -0.412567,-0.5860507 -0.412565,-0.983811 -2e-6,-0.7574231 0.283505,-1.3582877 0.85052,-1.8025956 0.571243,-0.4442947 1.345596,-0.6664454 2.323063,-0.6664526 0.385057,7.2e-6 0.75954,0.031743 1.123449,0.095207 0.36813,0.063479 0.729918,0.1586862 1.085366,0.2856225"
         style="font-size:12.9989996px;font-style:italic;font-variant:normal;font-weight:normal;writing-mode:lr-tb;fill:#006946;fill-opacity:1;fill-rule:nonzero;stroke:none;font-family:FranklinGothic;-inkscape-font-specification:FranklinGothic-Book Italic"
         id="path2903" /><path
         d="m 40.79208,-4.3795458 c -7e-6,-0.6220174 -0.135413,-1.0980545 -0.406219,-1.4281127 -0.270818,-0.3300466 -0.660111,-0.4950728 -1.167879,-0.4950791 -0.346983,6.3e-6 -0.679151,0.088867 -0.996505,0.266581 -0.313131,0.1777266 -0.592406,0.4358445 -0.837827,0.7743545 -0.241195,0.3342891 -0.433725,0.7383917 -0.577592,1.2123091 -0.143871,0.4739254 -0.215806,0.9436153 -0.215804,1.4090712 -2e-6,0.5924044 0.135404,1.0494 0.406219,1.3709882 0.27081,0.31735939 0.655871,0.47603842 1.155185,0.47603763 0.368131,7.9e-7 0.708762,-0.0867438 1.021894,-0.26023393 0.317353,-0.173488 0.588165,-0.4252587 0.812437,-0.7553129 0.241187,-0.3469764 0.435833,-0.7553104 0.58394,-1.2250034 0.148094,-0.4696869 0.222144,-0.9182196 0.222151,-1.3455996 m -3.617886,-1.6502636 c 0.313124,-0.4104437 0.681259,-0.7214546 1.104407,-0.9330336 0.427372,-0.2115651 0.901293,-0.3173512 1.421766,-0.3173584 0.727802,7.2e-6 1.2927,0.2390837 1.694693,0.7172299 0.40198,0.473928 0.602974,1.1403799 0.602981,1.9993579 -7e-6,0.7024237 -0.124835,1.3731071 -0.374482,2.0120522 -0.249663,0.6347186 -0.609335,1.2038475 -1.079019,1.70738809 -0.313133,0.33428468 -0.666458,0.59028685 -1.059977,0.7680073 -0.393529,0.17348915 -0.80821,0.26023369 -1.244045,0.26023388 -0.503545,-1.9e-7 -0.926689,-0.10367049 -1.269433,-0.31101123 -0.34275,-0.21157192 -0.598752,-0.52469855 -0.768008,-0.93938084 l -0.729924,3.7702177 -1.167879,0 1.910498,-9.8127214 1.167878,0 -0.209456,1.0790185"
         style="font-size:12.9989996px;font-style:italic;font-variant:normal;font-weight:normal;writing-mode:lr-tb;fill:#006946;fill-opacity:1;fill-rule:nonzero;stroke:none;font-family:FranklinGothic;-inkscape-font-specification:FranklinGothic-Book Italic"
         id="path2905" /><path
         d="M 48.55294,-4.2906854 47.721461,0 46.547235,0 47.378714,-4.2462552 c 0.03808,-0.1988735 0.0677,-0.3744783 0.08886,-0.526815 0.02115,-0.1523271 0.03173,-0.2729231 0.03174,-0.3617885 -6e-6,-0.3554359 -0.112139,-0.6325953 -0.3364,-0.831479 -0.224272,-0.1988718 -0.537399,-0.2983106 -0.939381,-0.2983169 -0.626258,6.3e-6 -1.169998,0.2115783 -1.631222,0.6347168 -0.456999,0.4231497 -0.753199,0.9859314 -0.888603,1.6883466 L 42.935696,0 l -1.167878,0 1.923191,-9.8761931 1.167879,0 -0.755313,3.8844667 c 0.296198,-0.3977494 0.674912,-0.7108761 1.136143,-0.9393808 0.461224,-0.2327223 0.945724,-0.349087 1.453502,-0.3490942 0.626248,7.2e-6 1.110748,0.1692649 1.453501,0.5077734 0.346972,0.338522 0.520461,0.8145591 0.520468,1.4281127 -7e-6,0.1523373 -0.01059,0.3152477 -0.03174,0.488732 -0.01693,0.1734939 -0.04444,0.361793 -0.08251,0.5648979"
         style="font-size:12.9989996px;font-style:italic;font-variant:normal;font-weight:normal;writing-mode:lr-tb;fill:#006946;fill-opacity:1;fill-rule:nonzero;stroke:none;font-family:FranklinGothic;-inkscape-font-specification:FranklinGothic-Book Italic"
         id="path2907" /><path
         d="m 54.647235,-4.1891307 c 0.01269,-0.067699 0.02115,-0.1375177 0.02539,-0.2094566 0.0085,-0.07193 0.01269,-0.1438646 0.01269,-0.2158037 -6e-6,-0.5162312 -0.152338,-0.9245652 -0.456996,-1.2250033 -0.300438,-0.3004265 -0.710888,-0.4506427 -1.23135,-0.450649 -0.579712,6.3e-6 -1.091717,0.184074 -1.536015,0.5522036 -0.444304,0.3639097 -0.780704,0.8822612 -1.0092,1.5550561 l 4.195478,-0.00635 m 1.015547,0.9139921 -5.433175,0 c -0.02539,0.1607981 -0.04232,0.2877413 -0.05078,0.3808301 -0.0085,0.093095 -0.0127,0.173492 -0.01269,0.2411924 -2e-6,0.5881729 0.179834,1.0430528 0.539509,1.364641 0.363902,0.32159084 0.875906,0.4823856 1.536015,0.48238479 0.507769,8.1e-7 0.988037,-0.0571236 1.440807,-0.17137353 0.452759,-0.11424796 0.873787,-0.28138986 1.263086,-0.50142626 l -0.222151,1.15518454 c -0.418919,0.16925797 -0.852641,0.29620119 -1.301169,0.38083007 -0.444306,0.08462876 -0.897071,0.12694317 -1.358294,0.12694336 -0.985929,-1.9e-7 -1.745473,-0.23484516 -2.278633,-0.70453563 -0.528932,-0.47392086 -0.793397,-1.14460424 -0.793396,-2.01205214 -10e-7,-0.7404997 0.131174,-1.4281088 0.393524,-2.0628296 0.26658,-0.638943 0.655873,-1.2080718 1.167879,-1.7073881 0.33005,-0.3131203 0.721459,-0.5543125 1.174226,-0.7235771 0.456992,-0.1692506 0.941492,-0.2538795 1.453502,-0.2538867 0.803969,7.2e-6 1.442916,0.2411994 1.916844,0.7235771 0.478146,0.4823908 0.717223,1.1298013 0.71723,1.9422333 -7e-6,0.1946509 -0.0127,0.4041073 -0.03808,0.6283696 -0.0254,0.220039 -0.06348,0.4569996 -0.114249,0.7108828"
         style="font-size:12.9989996px;font-style:italic;font-variant:normal;font-weight:normal;writing-mode:lr-tb;fill:#006946;fill-opacity:1;fill-rule:nonzero;stroke:none;font-family:FranklinGothic;-inkscape-font-specification:FranklinGothic-Book Italic"
         id="path2909" /><path
         d="m 60.949723,-6.0298094 c -0.118487,-0.063466 -0.253893,-0.1121271 -0.406219,-0.1459848 -0.152337,-0.033845 -0.315248,-0.050771 -0.488732,-0.050777 -0.622027,6.2e-6 -1.165767,0.2369669 -1.631222,0.7108828 -0.465462,0.4696955 -0.774357,1.1001802 -0.926687,1.891456 L 56.779633,0 l -1.167878,0 1.390029,-7.1088279 1.167879,0 -0.222151,1.1044072 c 0.308893,-0.4104438 0.677028,-0.7256861 1.104407,-0.945728 0.431604,-0.220028 0.890715,-0.3300455 1.377336,-0.3300527 0.126938,7.2e-6 0.251765,0.00847 0.374483,0.025389 0.122706,0.012702 0.245418,0.035975 0.368136,0.069819 l -0.222151,1.1551845"
         style="font-size:12.9989996px;font-style:italic;font-variant:normal;font-weight:normal;writing-mode:lr-tb;fill:#006946;fill-opacity:1;fill-rule:nonzero;stroke:none;font-family:FranklinGothic;-inkscape-font-specification:FranklinGothic-Book Italic"
         id="path2911" /><path
         d="m 61.941605,-9.8761931 1.167878,0 -0.285622,1.4788901 -1.167879,0 0.285623,-1.4788901 m -0.533163,2.7673652 1.167879,0 L 61.186292,0 60.018413,0 61.408442,-7.1088279"
         style="font-size:12.9989996px;font-style:italic;font-variant:normal;font-weight:normal;writing-mode:lr-tb;fill:#006946;fill-opacity:1;fill-rule:nonzero;stroke:none;font-family:FranklinGothic;-inkscape-font-specification:FranklinGothic-Book Italic"
         id="path2913" /><path
         d="m 69.52038,-6.8358997 -0.234846,1.1551845 c -0.279281,-0.2031034 -0.577598,-0.3554353 -0.89495,-0.456996 -0.313133,-0.1015485 -0.638954,-0.1523258 -0.977464,-0.1523321 -0.372372,6.3e-6 -0.727813,0.065594 -1.066324,0.1967622 -0.334288,0.1311808 -0.615679,0.3173642 -0.844174,0.5585508 -0.363906,0.3681409 -0.645297,0.7997479 -0.844173,1.2948222 -0.19888,0.4950829 -0.298319,1.0070872 -0.298317,1.5360146 -2e-6,0.6389503 0.158677,1.1149874 0.476038,1.4281128 0.321587,0.31312788 0.808203,0.4696912 1.459848,0.46969039 0.321586,8.1e-7 0.662217,-0.0486608 1.021894,-0.14598486 0.3639,-0.0973222 0.742614,-0.24330693 1.136143,-0.43795453 l -0.22215,1.15518449 c -0.338521,0.13963779 -0.687615,0.24330809 -1.047283,0.31101122 -0.355446,0.07193442 -0.721465,0.10790167 -1.09806,0.10790186 -0.943615,-1.9e-7 -1.669307,-0.23484516 -2.177079,-0.70453563 -0.507774,-0.47392086 -0.76166,-1.14883574 -0.76166,-2.02474654 0,-0.7362682 0.131174,-1.4132987 0.393525,-2.0310937 0.266579,-0.6220172 0.660103,-1.1805674 1.180573,-1.6756523 0.355439,-0.338509 0.772236,-0.5945112 1.250392,-0.7680073 0.478149,-0.173482 1.000732,-0.2602266 1.56775,-0.2602338 0.330048,7.2e-6 0.657984,0.03809 0.983811,0.114249 0.325815,0.071942 0.657983,0.1819591 0.996506,0.3300527"
         style="font-size:12.9989996px;font-style:italic;font-variant:normal;font-weight:normal;writing-mode:lr-tb;fill:#006946;fill-opacity:1;fill-rule:nonzero;stroke:none;font-family:FranklinGothic;-inkscape-font-specification:FranklinGothic-Book Italic"
         id="path2915" /><path
         d="M 83.634905,-4.2906854 82.803426,0 81.635547,0 82.454332,-4.2526024 c 0.03384,-0.1819477 0.05923,-0.338511 0.07617,-0.4696904 0.01692,-0.13117 0.02538,-0.2433032 0.02539,-0.3363999 -1e-5,-0.3808246 -0.105796,-0.6770255 -0.317358,-0.8886035 -0.211582,-0.2115661 -0.507783,-0.3173521 -0.888603,-0.3173584 -0.567023,6.3e-6 -1.07268,0.213694 -1.516974,0.641064 -0.444309,0.4231497 -0.732047,0.9753527 -0.863214,1.6566107 L 78.189035,0 77.021156,0 77.852635,-4.2526024 c 0.03385,-0.1565591 0.05923,-0.3004281 0.07617,-0.4316074 0.01692,-0.1354014 0.02538,-0.2559975 0.02539,-0.3617886 -6e-6,-0.3850561 -0.105792,-0.6833726 -0.317359,-0.8949506 -0.211577,-0.2157976 -0.503547,-0.3236993 -0.875909,-0.3237056 -0.575481,6.3e-6 -1.085369,0.213694 -1.529667,0.641064 -0.444305,0.4231497 -0.732043,0.9753527 -0.863215,1.6566107 L 73.587338,0 l -1.167879,0 1.39003,-7.1088279 1.167879,0 -0.222151,1.1044072 c 0.317355,-0.4146752 0.687607,-0.7299176 1.110755,-0.945728 0.427371,-0.220028 0.884367,-0.3300455 1.370988,-0.3300527 0.51623,7.2e-6 0.939374,0.1354134 1.269433,0.4062187 0.334278,0.2708191 0.535271,0.6474173 0.602981,1.1297959 0.355434,-0.4993043 0.765884,-0.880134 1.231351,-1.1424902 0.469681,-0.2623425 0.96476,-0.3935172 1.485237,-0.3935244 0.609318,7.2e-6 1.079008,0.175612 1.409071,0.5268149 0.334273,0.3512163 0.501415,0.8484107 0.501427,1.4915844 -1.2e-5,0.1396428 -0.0085,0.2940904 -0.02539,0.4633433 -0.01694,0.165031 -0.04233,0.3342886 -0.07617,0.5077734"
         style="font-size:12.9989996px;font-style:italic;font-variant:normal;font-weight:normal;writing-mode:lr-tb;fill:#006946;fill-opacity:1;fill-rule:nonzero;stroke:none;font-family:FranklinGothic;-inkscape-font-specification:FranklinGothic-Book Italic"
         id="path2917" /><path
         d="m 88.834609,-4.1891307 c 0.01269,-0.067699 0.02115,-0.1375177 0.02539,-0.2094566 0.0085,-0.07193 0.01269,-0.1438646 0.01269,-0.2158037 -6e-6,-0.5162312 -0.152338,-0.9245652 -0.456996,-1.2250033 -0.300438,-0.3004265 -0.710887,-0.4506427 -1.23135,-0.450649 -0.579712,6.3e-6 -1.091717,0.184074 -1.536015,0.5522036 -0.444304,0.3639097 -0.780704,0.8822612 -1.009199,1.5550561 l 4.195477,-0.00635 m 1.015547,0.9139921 -5.433175,0 c -0.02539,0.1607981 -0.04232,0.2877413 -0.05078,0.3808301 -0.0085,0.093095 -0.0127,0.173492 -0.01269,0.2411924 -2e-6,0.5881729 0.179835,1.0430528 0.539509,1.364641 0.363902,0.32159084 0.875906,0.4823856 1.536015,0.48238479 0.507769,8.1e-7 0.988038,-0.0571236 1.440807,-0.17137353 0.452759,-0.11424796 0.873787,-0.28138986 1.263086,-0.50142626 l -0.222151,1.15518454 c -0.418918,0.16925797 -0.852641,0.29620119 -1.301169,0.38083007 -0.444306,0.08462876 -0.89707,0.12694317 -1.358294,0.12694336 -0.985929,-1.9e-7 -1.745473,-0.23484516 -2.278633,-0.70453563 -0.528932,-0.47392086 -0.793397,-1.14460424 -0.793396,-2.01205214 -10e-7,-0.7404997 0.131174,-1.4281088 0.393524,-2.0628296 0.26658,-0.638943 0.655873,-1.2080718 1.167879,-1.7073881 0.330051,-0.3131203 0.721459,-0.5543125 1.174226,-0.7235771 0.456993,-0.1692506 0.941493,-0.2538795 1.453502,-0.2538867 0.803969,7.2e-6 1.442916,0.2411994 1.916844,0.7235771 0.478147,0.4823908 0.717223,1.1298013 0.71723,1.9422333 -7e-6,0.1946509 -0.0127,0.4041073 -0.03808,0.6283696 -0.0254,0.220039 -0.06348,0.4569996 -0.114249,0.7108828"
         style="font-size:12.9989996px;font-style:italic;font-variant:normal;font-weight:normal;writing-mode:lr-tb;fill:#006946;fill-opacity:1;fill-rule:nonzero;stroke:none;font-family:FranklinGothic;-inkscape-font-specification:FranklinGothic-Book Italic"
         id="path2919" /><path
         d="M 96.324009,-4.0558402 95.530614,0 94.362735,0 94.578538,-1.0790185 c -0.342752,0.42314515 -0.73416,0.74050322 -1.174226,0.95207514 C 92.96847,0.08039738 92.481854,0.18406768 91.944464,0.18406787 91.339365,0.18406768 90.842171,0 90.452879,-0.36813573 90.067817,-0.74050217 89.875286,-1.2165393 89.875287,-1.7962485 c -10e-7,-0.8293606 0.330052,-1.485234 0.990158,-1.967622 0.664335,-0.4823805 1.578326,-0.7235726 2.741977,-0.7235771 l 1.624875,0 0.06347,-0.3110112 c 0.0085,-0.033847 0.0148,-0.069814 0.01904,-0.1079019 0.0042,-0.042309 0.0063,-0.1057811 0.0063,-0.190415 -6e-6,-0.3765932 -0.154454,-0.6685626 -0.463343,-0.8759092 -0.30467,-0.211566 -0.734161,-0.3173521 -1.288475,-0.3173584 -0.380834,6.3e-6 -0.772243,0.048668 -1.174226,0.1459849 -0.397759,0.097329 -0.808209,0.243314 -1.231351,0.4379546 l 0.203109,-1.0790185 c 0.440068,-0.1650195 0.86956,-0.2877312 1.288476,-0.3681358 0.42314,-0.084622 0.831474,-0.1269361 1.225003,-0.1269433 0.837821,7.2e-6 1.474653,0.1819592 1.910497,0.5458564 0.440064,0.3639107 0.660099,0.8928408 0.660106,1.5867919 -7e-6,0.1396427 -0.01059,0.3046689 -0.03174,0.4950791 -0.02116,0.1861881 -0.0529,0.3850658 -0.09521,0.5966338 m -1.263086,0.4823847 -1.167879,0 c -0.95631,3.6e-6 -1.665076,0.1290626 -2.126301,0.3871773 -0.456998,0.2538896 -0.685496,0.6495294 -0.685494,1.1869204 -2e-6,0.3723688 0.116363,0.6643382 0.349094,0.8759091 0.236959,0.21157318 0.56278,0.3173592 0.977464,0.31735839 0.634713,8.1e-7 1.189032,-0.22638129 1.662958,-0.67914699 0.473917,-0.4569941 0.787043,-1.0663216 0.939381,-1.8279843 l 0.05078,-0.2602339"
         style="font-size:12.9989996px;font-style:italic;font-variant:normal;font-weight:normal;writing-mode:lr-tb;fill:#006946;fill-opacity:1;fill-rule:nonzero;stroke:none;font-family:FranklinGothic;-inkscape-font-specification:FranklinGothic-Book Italic"
         id="path2921" /><path
         d="m 102.79609,-6.8993714 -0.22215,1.1044072 c -0.3089,-0.1692518 -0.63472,-0.296195 -0.97746,-0.38083 -0.34275,-0.084623 -0.69608,-0.1269371 -1.05998,-0.1269434 -0.613562,6.3e-6 -1.098062,0.1057923 -1.453501,0.3173584 -0.351212,0.2073466 -0.526817,0.4908531 -0.526815,0.8505205 -2e-6,0.4189178 0.410448,0.7405073 1.231351,0.9647695 0.06347,0.01693 0.110014,0.029624 0.139638,0.038083 l 0.374487,0.114249 c 0.77858,0.2158075 1.29693,0.4421896 1.55505,0.679147 0.26235,0.236964 0.39352,0.5606692 0.39353,0.9711166 -1e-5,0.7531989 -0.30044,1.3667578 -0.9013,1.84067867 -0.59664,0.47392192 -1.379457,0.71088261 -2.348454,0.7108828 -0.376601,-1.9e-7 -0.77224,-0.0359674 -1.18692,-0.10790186 -0.414683,-0.07193457 -0.871679,-0.18406775 -1.370988,-0.33639989 l 0.228498,-1.20596192 c 0.427375,0.2200364 0.848403,0.3871784 1.263086,0.5014263 0.41468,0.11424987 0.812435,0.17137432 1.193268,0.17137353 0.571241,7.9e-7 1.03458,-0.122711 1.39003,-0.36813573 0.35967,-0.2454224 0.5395,-0.5564333 0.53951,-0.9330337 -1e-5,-0.4062162 -0.4697,-0.7341529 -1.409073,-0.983811 l -0.120596,-0.031736 -0.399871,-0.1015547 c -0.592405,-0.1565601 -1.026128,-0.361785 -1.30117,-0.6156753 -0.275045,-0.258114 -0.412567,-0.5860507 -0.412566,-0.983811 -1e-6,-0.7574231 0.283506,-1.3582877 0.850521,-1.8025956 0.571242,-0.4442947 1.345596,-0.6664454 2.323065,-0.6664526 0.38505,7.2e-6 0.75954,0.031743 1.12345,0.095207 0.36813,0.063479 0.72991,0.1586862 1.08536,0.2856225"
         style="font-size:12.9989996px;font-style:italic;font-variant:normal;font-weight:normal;writing-mode:lr-tb;fill:#006946;fill-opacity:1;fill-rule:nonzero;stroke:none;font-family:FranklinGothic;-inkscape-font-specification:FranklinGothic-Book Italic"
         id="path2923" /><path
         d="m 103.17169,-2.8181425 0.83148,-4.2906854 1.17423,0 -0.83148,4.2462552 c -0.0423,0.2073435 -0.074,0.385064 -0.0952,0.5331621 -0.0169,0.1481028 -0.0254,0.2708146 -0.0254,0.3681358 0,0.3596744 0.11002,0.6389495 0.33006,0.8378261 0.22003,0.19464741 0.53104,0.29197055 0.93303,0.29196972 0.62625,8.3e-7 1.16787,-0.21157122 1.62487,-0.63471682 0.457,-0.4231426 0.75531,-0.9922714 0.89496,-1.7073881 l 0.7807,-3.935244 1.16788,0 L 108.57948,0 l -1.16788,0 0.23485,-1.1171015 c -0.33006,0.4146823 -0.72358,0.73627181 -1.18058,0.96476947 -0.45276,0.22426653 -0.93515,0.33639971 -1.44715,0.3363999 -0.62203,-1.9e-7 -1.10653,-0.16925783 -1.4535,-0.50777343 -0.34698,-0.34274639 -0.52047,-0.81878354 -0.52047,-1.42811274 0,-0.1269415 0.0106,-0.2856205 0.0317,-0.4760376 0.0211,-0.1904126 0.0529,-0.3871746 0.0952,-0.5902866"
         style="font-size:12.9989996px;font-style:italic;font-variant:normal;font-weight:normal;writing-mode:lr-tb;fill:#006946;fill-opacity:1;fill-rule:nonzero;stroke:none;font-family:FranklinGothic;-inkscape-font-specification:FranklinGothic-Book Italic"
         id="path2925" /><path
         d="m 115.15555,-6.0298094 c -0.11848,-0.063466 -0.25389,-0.1121271 -0.40622,-0.1459848 -0.15233,-0.033845 -0.31524,-0.050771 -0.48873,-0.050777 -0.62203,6.2e-6 -1.16577,0.2369669 -1.63122,0.7108828 -0.46546,0.4696955 -0.77436,1.1001802 -0.92669,1.891456 L 110.98546,0 l -1.16788,0 1.39003,-7.1088279 1.16788,0 -0.22215,1.1044072 c 0.30889,-0.4104438 0.67703,-0.7256861 1.10441,-0.945728 0.4316,-0.220028 0.89071,-0.3300455 1.37733,-0.3300527 0.12694,7.2e-6 0.25177,0.00847 0.37449,0.025389 0.1227,0.012702 0.24542,0.035975 0.36813,0.069819 l -0.22215,1.1551845"
         style="font-size:12.9989996px;font-style:italic;font-variant:normal;font-weight:normal;writing-mode:lr-tb;fill:#006946;fill-opacity:1;fill-rule:nonzero;stroke:none;font-family:FranklinGothic;-inkscape-font-specification:FranklinGothic-Book Italic"
         id="path2927" /><path
         d="m 120.01921,-4.1891307 c 0.0127,-0.067699 0.0212,-0.1375177 0.0254,-0.2094566 0.008,-0.07193 0.0127,-0.1438646 0.0127,-0.2158037 0,-0.5162312 -0.15233,-0.9245652 -0.45699,-1.2250033 -0.30044,-0.3004265 -0.71089,-0.4506427 -1.23135,-0.450649 -0.57972,6.3e-6 -1.09172,0.184074 -1.53602,0.5522036 -0.4443,0.3639097 -0.7807,0.8822612 -1.0092,1.5550561 l 4.19548,-0.00635 m 1.01555,0.9139921 -5.43318,0 c -0.0254,0.1607981 -0.0423,0.2877413 -0.0508,0.3808301 -0.008,0.093095 -0.0127,0.173492 -0.0127,0.2411924 0,0.5881729 0.17983,1.0430528 0.53951,1.364641 0.3639,0.32159084 0.87591,0.4823856 1.53601,0.48238479 0.50777,8.1e-7 0.98804,-0.0571236 1.44081,-0.17137353 0.45276,-0.11424796 0.87379,-0.28138986 1.26309,-0.50142626 l -0.22215,1.15518454 c -0.41892,0.16925797 -0.85265,0.29620119 -1.30117,0.38083007 -0.44431,0.08462876 -0.89707,0.12694317 -1.3583,0.12694336 -0.98593,-1.9e-7 -1.74547,-0.23484516 -2.27863,-0.70453563 -0.52893,-0.47392086 -0.7934,-1.14460424 -0.7934,-2.01205214 0,-0.7404997 0.13118,-1.4281088 0.39353,-2.0628296 0.26658,-0.638943 0.65587,-1.2080718 1.16788,-1.7073881 0.33005,-0.3131203 0.72146,-0.5543125 1.17422,-0.7235771 0.457,-0.1692506 0.9415,-0.2538795 1.4535,-0.2538867 0.80397,7.2e-6 1.44292,0.2411994 1.91685,0.7235771 0.47815,0.4823908 0.71722,1.1298013 0.71723,1.9422333 -1e-5,0.1946509 -0.0127,0.4041073 -0.0381,0.6283696 -0.0254,0.220039 -0.0635,0.4569996 -0.11425,0.7108828"
         style="font-size:12.9989996px;font-style:italic;font-variant:normal;font-weight:normal;writing-mode:lr-tb;fill:#006946;fill-opacity:1;fill-rule:nonzero;stroke:none;font-family:FranklinGothic;-inkscape-font-specification:FranklinGothic-Book Italic"
         id="path2929" /><path
         d="M 132.19917,-4.2906854 131.36769,0 l -1.16788,0 0.81878,-4.2526024 c 0.0339,-0.1819477 0.0592,-0.338511 0.0762,-0.4696904 0.0169,-0.13117 0.0254,-0.2433032 0.0254,-0.3363999 -1e-5,-0.3808246 -0.1058,-0.6770255 -0.31736,-0.8886035 -0.21158,-0.2115661 -0.50778,-0.3173521 -0.8886,-0.3173584 -0.56703,6.3e-6 -1.07268,0.213694 -1.51698,0.641064 -0.44431,0.4231497 -0.73204,0.9753527 -0.86321,1.6566107 L 126.7533,0 l -1.16788,0 0.83148,-4.2526024 c 0.0338,-0.1565591 0.0592,-0.3004281 0.0762,-0.4316074 0.0169,-0.1354014 0.0254,-0.2559975 0.0254,-0.3617886 0,-0.3850561 -0.10579,-0.6833726 -0.31736,-0.8949506 -0.21157,-0.2157976 -0.50354,-0.3236993 -0.87591,-0.3237056 -0.57548,6.3e-6 -1.08536,0.213694 -1.52966,0.641064 -0.44431,0.4231497 -0.73205,0.9753527 -0.86322,1.6566107 L 122.1516,0 l -1.16788,0 1.39003,-7.1088279 1.16788,0 -0.22215,1.1044072 c 0.31735,-0.4146752 0.68761,-0.7299176 1.11075,-0.945728 0.42738,-0.220028 0.88437,-0.3300455 1.37099,-0.3300527 0.51623,7.2e-6 0.93938,0.1354134 1.26944,0.4062187 0.33427,0.2708191 0.53527,0.6474173 0.60298,1.1297959 0.35543,-0.4993043 0.76588,-0.880134 1.23135,-1.1424902 0.46968,-0.2623425 0.96476,-0.3935172 1.48523,-0.3935244 0.60932,7.2e-6 1.07901,0.175612 1.40908,0.5268149 0.33427,0.3512163 0.50141,0.8484107 0.50142,1.4915844 -1e-5,0.1396428 -0.008,0.2940904 -0.0254,0.4633433 -0.0169,0.165031 -0.0423,0.3342886 -0.0762,0.5077734"
         style="font-size:12.9989996px;font-style:italic;font-variant:normal;font-weight:normal;writing-mode:lr-tb;fill:#006946;fill-opacity:1;fill-rule:nonzero;stroke:none;font-family:FranklinGothic;-inkscape-font-specification:FranklinGothic-Book Italic"
         id="path2931" /><path
         d="m 137.39887,-4.1891307 c 0.0127,-0.067699 0.0212,-0.1375177 0.0254,-0.2094566 0.008,-0.07193 0.0127,-0.1438646 0.0127,-0.2158037 0,-0.5162312 -0.15233,-0.9245652 -0.45699,-1.2250033 -0.30044,-0.3004265 -0.71089,-0.4506427 -1.23135,-0.450649 -0.57971,6.3e-6 -1.09172,0.184074 -1.53602,0.5522036 -0.4443,0.3639097 -0.7807,0.8822612 -1.0092,1.5550561 l 4.19548,-0.00635 m 1.01555,0.9139921 -5.43318,0 c -0.0254,0.1607981 -0.0423,0.2877413 -0.0508,0.3808301 -0.008,0.093095 -0.0127,0.173492 -0.0127,0.2411924 0,0.5881729 0.17984,1.0430528 0.53951,1.364641 0.3639,0.32159084 0.87591,0.4823856 1.53602,0.48238479 0.50776,8.1e-7 0.98803,-0.0571236 1.4408,-0.17137353 0.45276,-0.11424796 0.87379,-0.28138986 1.26309,-0.50142626 l -0.22215,1.15518454 c -0.41892,0.16925797 -0.85264,0.29620119 -1.30117,0.38083007 -0.44431,0.08462876 -0.89707,0.12694317 -1.3583,0.12694336 -0.98592,-1.9e-7 -1.74547,-0.23484516 -2.27863,-0.70453563 -0.52893,-0.47392086 -0.7934,-1.14460424 -0.79339,-2.01205214 -1e-5,-0.7404997 0.13117,-1.4281088 0.39352,-2.0628296 0.26658,-0.638943 0.65587,-1.2080718 1.16788,-1.7073881 0.33005,-0.3131203 0.72146,-0.5543125 1.17422,-0.7235771 0.457,-0.1692506 0.9415,-0.2538795 1.45351,-0.2538867 0.80397,7.2e-6 1.44291,0.2411994 1.91684,0.7235771 0.47815,0.4823908 0.71722,1.1298013 0.71723,1.9422333 -1e-5,0.1946509 -0.0127,0.4041073 -0.0381,0.6283696 -0.0254,0.220039 -0.0635,0.4569996 -0.11425,0.7108828"
         style="font-size:12.9989996px;font-style:italic;font-variant:normal;font-weight:normal;writing-mode:lr-tb;fill:#006946;fill-opacity:1;fill-rule:nonzero;stroke:none;font-family:FranklinGothic;-inkscape-font-specification:FranklinGothic-Book Italic"
         id="path2933" /><path
         d="M 145.14851,-4.2906854 144.31703,0 l -1.17423,0 0.83148,-4.2462552 c 0.0381,-0.1988735 0.0677,-0.3744783 0.0889,-0.526815 0.0212,-0.1523271 0.0317,-0.2729231 0.0317,-0.3617885 -1e-5,-0.3554359 -0.11214,-0.6325953 -0.3364,-0.831479 -0.22428,-0.1988718 -0.5374,-0.2983106 -0.93938,-0.2983169 -0.62626,6.3e-6 -1.16577,0.2094626 -1.61853,0.6283696 -0.45277,0.4146869 -0.74897,0.9795842 -0.88861,1.6946938 L 139.53126,0 l -1.16788,0 1.37734,-7.1088279 1.16788,0 -0.23485,1.1171015 c 0.32582,-0.4104438 0.71723,-0.7278018 1.17423,-0.9520751 0.45699,-0.2242595 0.93726,-0.3363927 1.44081,-0.3363999 0.62624,7.2e-6 1.11074,0.1692649 1.4535,0.5077734 0.34697,0.338522 0.52046,0.8145591 0.52046,1.4281127 0,0.1523373 -0.0106,0.3152477 -0.0317,0.488732 -0.0169,0.1734939 -0.0444,0.361793 -0.0825,0.5648979"
         style="font-size:12.9989996px;font-style:italic;font-variant:normal;font-weight:normal;writing-mode:lr-tb;fill:#006946;fill-opacity:1;fill-rule:nonzero;stroke:none;font-family:FranklinGothic;-inkscape-font-specification:FranklinGothic-Book Italic"
         id="path2935" /><path
         d="m 150.52649,-7.1088279 -0.17772,0.907645 -2.32941,0 -0.75531,3.859078 c -0.0254,0.1438713 -0.0444,0.2644674 -0.0571,0.3617886 -0.0127,0.097325 -0.019,0.173491 -0.019,0.228498 0,0.270814 0.0804,0.467576 0.2412,0.5902866 0.16502,0.1227129 0.42737,0.18406884 0.78704,0.18406786 l 1.18058,0 L 149.19994,0 148.08283,0 c -0.69396,0 -1.21231,-0.13540611 -1.55505,-0.40621874 C 146.18926,-0.67703055 146.02,-1.0874803 146.02,-1.6375693 c 0,-0.097322 0.006,-0.2031075 0.019,-0.3173584 0.0127,-0.1184784 0.0317,-0.2475373 0.0571,-0.3871772 l 0.75531,-3.859078 -0.99015,0 0.18406,-0.907645 0.97112,0 0.39352,-2.0183994 1.16788,0 -0.38717,2.0183994 2.33575,0"
         style="font-size:12.9989996px;font-style:italic;font-variant:normal;font-weight:normal;writing-mode:lr-tb;fill:#006946;fill-opacity:1;fill-rule:nonzero;stroke:none;font-family:FranklinGothic;-inkscape-font-specification:FranklinGothic-Book Italic"
         id="path2937" /><path
         d="m 158.48416,-9.8761931 -0.18407,0.9711167 -1.1171,0 c -0.42315,8.9e-6 -0.73205,0.084638 -0.92669,0.2538867 -0.19042,0.1650349 -0.33217,0.4696986 -0.42526,0.9139922 l -0.12694,0.6283696 1.92319,0 -0.17138,0.907645 -1.92319,0 L 154.32676,0 l -1.17422,0 1.2123,-6.2011829 -1.1171,0 0.16503,-0.907645 1.1171,0 0.0952,-0.4950791 c 0.16079,-0.8378177 0.44218,-1.425988 0.84417,-1.7645126 0.40622,-0.3385059 1.04305,-0.5077636 1.9105,-0.5077735 l 1.10441,0"
         style="font-size:12.9989996px;font-style:italic;font-variant:normal;font-weight:normal;writing-mode:lr-tb;fill:#006946;fill-opacity:1;fill-rule:nonzero;stroke:none;font-family:FranklinGothic;-inkscape-font-specification:FranklinGothic-Book Italic"
         id="path2939" /><path
         d="M 163.15187,-4.0558402 162.35847,0 l -1.16788,0 0.21581,-1.0790185 c -0.34276,0.42314515 -0.73416,0.74050322 -1.17423,0.95207514 -0.43584,0.20734074 -0.92246,0.31101104 -1.45985,0.31101123 -0.6051,-1.9e-7 -1.10229,-0.18406787 -1.49158,-0.5522036 -0.38506,-0.37236644 -0.5776,-0.84840357 -0.57759,-1.42811277 -1e-5,-0.8293606 0.33005,-1.485234 0.99015,-1.967622 0.66434,-0.4823805 1.57833,-0.7235726 2.74198,-0.7235771 l 1.62487,0 0.0635,-0.3110112 c 0.008,-0.033847 0.0148,-0.069814 0.019,-0.1079019 0.004,-0.042309 0.006,-0.1057811 0.006,-0.190415 0,-0.3765932 -0.15445,-0.6685626 -0.46334,-0.8759092 -0.30467,-0.211566 -0.73416,-0.3173521 -1.28847,-0.3173584 -0.38084,6.3e-6 -0.77225,0.048668 -1.17423,0.1459849 -0.39776,0.097329 -0.80821,0.243314 -1.23135,0.4379546 l 0.20311,-1.0790185 c 0.44007,-0.1650195 0.86956,-0.2877312 1.28847,-0.3681358 0.42315,-0.084622 0.83148,-0.1269361 1.22501,-0.1269433 0.83782,7.2e-6 1.47465,0.1819592 1.9105,0.5458564 0.44006,0.3639107 0.66009,0.8928408 0.6601,1.5867919 -1e-5,0.1396427 -0.0106,0.3046689 -0.0317,0.4950791 -0.0212,0.1861881 -0.0529,0.3850658 -0.0952,0.5966338 m -1.26309,0.4823847 -1.16788,0 c -0.95631,3.6e-6 -1.66507,0.1290626 -2.1263,0.3871773 -0.457,0.2538896 -0.68549,0.6495294 -0.68549,1.1869204 0,0.3723688 0.11636,0.6643382 0.34909,0.8759091 0.23696,0.21157318 0.56278,0.3173592 0.97746,0.31735839 0.63472,8.1e-7 1.18904,-0.22638129 1.66296,-0.67914699 0.47392,-0.4569941 0.78705,-1.0663216 0.93938,-1.8279843 l 0.0508,-0.2602339"
         style="font-size:12.9989996px;font-style:italic;font-variant:normal;font-weight:normal;writing-mode:lr-tb;fill:#006946;fill-opacity:1;fill-rule:nonzero;stroke:none;font-family:FranklinGothic;-inkscape-font-specification:FranklinGothic-Book Italic"
         id="path2941" /><path
         d="m 170.09364,-6.8358997 -0.23484,1.1551845 c -0.27929,-0.2031034 -0.5776,-0.3554353 -0.89495,-0.456996 -0.31314,-0.1015485 -0.63896,-0.1523258 -0.97747,-0.1523321 -0.37237,6.3e-6 -0.72781,0.065594 -1.06632,0.1967622 -0.33429,0.1311808 -0.61568,0.3173642 -0.84418,0.5585508 -0.3639,0.3681409 -0.64529,0.7997479 -0.84417,1.2948222 -0.19888,0.4950829 -0.29832,1.0070872 -0.29832,1.5360146 0,0.6389503 0.15868,1.1149874 0.47604,1.4281128 0.32159,0.31312788 0.8082,0.4696912 1.45985,0.46969039 0.32159,8.1e-7 0.66222,-0.0486608 1.02189,-0.14598486 0.3639,-0.0973222 0.74262,-0.24330693 1.13615,-0.43795453 l -0.22215,1.15518449 c -0.33853,0.13963779 -0.68762,0.24330809 -1.04729,0.31101122 -0.35544,0.07193442 -0.72146,0.10790167 -1.09806,0.10790186 -0.94361,-1.9e-7 -1.6693,-0.23484516 -2.17708,-0.70453563 -0.50777,-0.47392086 -0.76166,-1.14883574 -0.76166,-2.02474654 0,-0.7362682 0.13118,-1.4132987 0.39353,-2.0310937 0.26658,-0.6220172 0.6601,-1.1805674 1.18057,-1.6756523 0.35544,-0.338509 0.77224,-0.5945112 1.25039,-0.7680073 0.47815,-0.173482 1.00074,-0.2602266 1.56775,-0.2602338 0.33005,7.2e-6 0.65799,0.03809 0.98382,0.114249 0.32581,0.071942 0.65798,0.1819591 0.9965,0.3300527"
         style="font-size:12.9989996px;font-style:italic;font-variant:normal;font-weight:normal;writing-mode:lr-tb;fill:#006946;fill-opacity:1;fill-rule:nonzero;stroke:none;font-family:FranklinGothic;-inkscape-font-specification:FranklinGothic-Book Italic"
         id="path2943" /><path
         d="m 171.66617,-9.8761931 1.16788,0 -0.28563,1.4788901 -1.16787,0 0.28562,-1.4788901 m -0.53316,2.7673652 1.16787,0 L 170.91086,0 l -1.16788,0 1.39003,-7.1088279"
         style="font-size:12.9989996px;font-style:italic;font-variant:normal;font-weight:normal;writing-mode:lr-tb;fill:#006946;fill-opacity:1;fill-rule:nonzero;stroke:none;font-family:FranklinGothic;-inkscape-font-specification:FranklinGothic-Book Italic"
         id="path2945" /><path
         d="m 174.65593,-9.8761931 1.16788,0 L 173.90062,0 l -1.16788,0 1.92319,-9.8761931"
         style="font-size:12.9989996px;font-style:italic;font-variant:normal;font-weight:normal;writing-mode:lr-tb;fill:#006946;fill-opacity:1;fill-rule:nonzero;stroke:none;font-family:FranklinGothic;-inkscape-font-specification:FranklinGothic-Book Italic"
         id="path2947" /><path
         d="m 177.64571,-9.8761931 1.16787,0 -0.28562,1.4788901 -1.16788,0 0.28563,-1.4788901 m -0.53317,2.7673652 1.16788,0 L 176.89039,0 l -1.16788,0 1.39003,-7.1088279"
         style="font-size:12.9989996px;font-style:italic;font-variant:normal;font-weight:normal;writing-mode:lr-tb;fill:#006946;fill-opacity:1;fill-rule:nonzero;stroke:none;font-family:FranklinGothic;-inkscape-font-specification:FranklinGothic-Book Italic"
         id="path2949" /><path
         d="m 183.75193,-7.1088279 -0.17772,0.907645 -2.32941,0 -0.75532,3.859078 c -0.0254,0.1438713 -0.0444,0.2644674 -0.0571,0.3617886 -0.0127,0.097325 -0.019,0.173491 -0.019,0.228498 -1e-5,0.270814 0.0804,0.467576 0.24119,0.5902866 0.16502,0.1227129 0.42737,0.18406884 0.78705,0.18406786 l 1.18057,0 L 182.42537,0 l -1.1171,0 c -0.69396,0 -1.21231,-0.13540611 -1.55506,-0.40621874 -0.33852,-0.27081181 -0.50777,-0.68126156 -0.50777,-1.23135056 0,-0.097322 0.006,-0.2031075 0.019,-0.3173584 0.0127,-0.1184784 0.0317,-0.2475373 0.0571,-0.3871772 l 0.75532,-3.859078 -0.99016,0 0.18407,-0.907645 0.97111,0 0.39353,-2.0183994 1.16788,0 -0.38718,2.0183994 2.33576,0"
         style="font-size:12.9989996px;font-style:italic;font-variant:normal;font-weight:normal;writing-mode:lr-tb;fill:#006946;fill-opacity:1;fill-rule:nonzero;stroke:none;font-family:FranklinGothic;-inkscape-font-specification:FranklinGothic-Book Italic"
         id="path2951" /><path
         d="m 185.47035,0.66010545 c -0.54163,0.90975915 -0.98382,1.47677225 -1.32656,1.70104095 -0.33852,0.2284955 -0.77224,0.3427444 -1.30117,0.3427471 l -0.92034,0 0.19676,-0.9774639 0.6728,0 c 0.32582,-1.7e-6 0.60298,-0.088862 0.83148,-0.266581 0.2285,-0.177722 0.4845,-0.52470015 0.76801,-1.04093553 l 0.36179,-0.67914695 -1.5741,-6.84859402 1.2377,0 1.18057,5.4458699 3.26245,-5.4458699 1.225,0 -4.61439,7.76893335"
         style="font-size:12.9989996px;font-style:italic;font-variant:normal;font-weight:normal;writing-mode:lr-tb;fill:#006946;fill-opacity:1;fill-rule:nonzero;stroke:none;font-family:FranklinGothic;-inkscape-font-specification:FranklinGothic-Book Italic"
         id="path2953" /></g></g></svg>